<?xml version="1.0" encoding="UTF-8"?>
<svg version="1.1" xmlns="http://www.w3.org/2000/svg" width="2000" height="1734">
<path d="M0 0 C0.94072861 -0.00997513 1.88145721 -0.01995026 2.85069275 -0.03022766 C3.88090546 -0.03089233 4.91111816 -0.03155701 5.97254944 -0.03224182 C7.05896225 -0.04056534 8.14537506 -0.04888885 9.26470947 -0.0574646 C12.865357 -0.08161192 16.4658236 -0.090342 20.06654358 -0.09693909 C22.56374162 -0.10590084 25.06093909 -0.11502259 27.55813599 -0.1242981 C32.79621629 -0.14080284 38.03425223 -0.14852427 43.27235413 -0.15138245 C49.32613037 -0.15501928 55.37940011 -0.18492521 61.43302149 -0.22678703 C67.25774923 -0.26565366 73.08227577 -0.27697479 78.90712166 -0.2781086 C81.38511975 -0.28232334 83.8631178 -0.29480742 86.34103203 -0.31562614 C89.80329222 -0.34240214 93.26414576 -0.33775546 96.72645569 -0.32521057 C97.75464417 -0.34004486 98.78283264 -0.35487915 99.84217834 -0.37016296 C101.25750099 -0.3555175 101.25750099 -0.3555175 102.70141602 -0.34057617 C103.5197589 -0.3425875 104.33810179 -0.34459883 105.18124294 -0.3466711 C107.41419983 0.27415466 107.41419983 0.27415466 109.6784153 2.04590511 C112.38233859 7.07472004 111.95271442 11.91793455 111.89953613 17.5408783 C111.90350956 18.80031832 111.90748298 20.05975835 111.91157681 21.35736322 C111.92214872 24.85158639 111.9079072 28.34533706 111.88971007 31.83951259 C111.87448385 35.60946797 111.88241634 39.37938067 111.88774109 43.14935303 C111.89401469 49.68524381 111.88623437 56.22099602 111.86948967 62.75686646 C111.8456825 72.22949965 111.84867402 81.70198391 111.85911811 91.17463452 C111.87583257 106.57354102 111.87838483 121.97241093 111.86854553 137.37132263 C111.86767112 138.75394038 111.86767112 138.75394038 111.86677904 140.16448981 C111.86006312 150.4282808 111.85100452 160.6920686 111.84046936 170.95585632 C111.83672999 174.66758721 111.83307024 178.37931816 111.82948303 182.09104919 C111.82859212 183.00681773 111.8277012 183.92258628 111.82678329 184.86610538 C111.81244408 200.188229 111.81767804 215.51028197 111.83740574 230.83239889 C111.84868055 240.26749923 111.84308797 249.70229124 111.8151269 259.13735843 C111.79710637 265.62061977 111.79718837 272.10372566 111.81091552 278.58699679 C111.81820149 282.31629796 111.81768289 286.04513048 111.79463005 289.77437782 C111.6063552 322.08772896 117.7057512 351.62255064 140.63685608 375.68431091 C162.22051121 395.81084165 191.31276945 404.27415466 220.41419983 404.27415466 C248.45545437 402.96350944 275.76659509 392.05860401 295.22669983 371.46165466 C317.32224364 345.40749423 319.05438114 313.10710928 318.93368721 280.33106875 C318.9244451 276.58636589 318.93874239 272.84173329 318.94995117 269.0970459 C318.96628164 262.6417126 318.96865769 256.18650328 318.96118546 249.7311554 C318.95057721 240.39618129 318.9641706 231.06135641 318.98365001 221.72640216 C319.01482203 206.57028134 319.02998015 191.41419247 319.03334045 176.25804138 C319.03354444 175.35515031 319.03374843 174.45225923 319.0339586 173.52200782 C319.03416197 172.61789983 319.03436534 171.71379184 319.03457487 170.78228664 C319.03750696 157.90864019 319.04433931 145.03500352 319.05580139 132.16136169 C319.05700933 130.79779266 319.05700933 130.79779266 319.05824168 129.40667677 C319.07197742 114.27044657 319.0937407 99.13423409 319.11967123 83.99802017 C319.13511969 74.67749721 319.14232488 65.357032 319.1388763 56.03649646 C319.13684229 49.67088164 319.14146899 43.30529571 319.15141965 36.93968838 C319.15686957 33.26540141 319.15889758 29.59118918 319.15224648 25.91690254 C319.14508765 21.94276669 319.15310133 17.96874648 319.16264343 13.99461365 C319.15564861 12.23817315 319.15564861 12.23817315 319.14851248 10.44624901 C319.15351118 9.38889864 319.15850988 8.33154827 319.16366005 7.24215698 C319.16377008 6.32441718 319.16388011 5.40667738 319.16399348 4.46112728 C319.41419983 2.27415466 319.41419983 2.27415466 321.41419983 0.27415466 C323.35420895 0.02247238 323.35420895 0.02247238 325.77258301 0.02018738 C327.14591797 0.01172791 327.14591797 0.01172791 328.54699707 0.00309753 C330.05798729 0.00917023 330.05798729 0.00917023 331.59950256 0.0153656 C332.65811493 0.01186096 333.71672729 0.00835632 334.80741882 0.00474548 C338.32094299 -0.0040861 341.83426721 0.00178283 345.34779358 0.00852966 C347.78155557 0.00718332 350.2153173 0.00524306 352.64907837 0.00273132 C357.75611424 -0.00022196 362.86308026 0.00408392 367.97010803 0.01341248 C374.52543677 0.02480102 381.08060164 0.01825252 387.63592434 0.00626755 C392.66383098 -0.00095067 397.69169861 0.00133682 402.7196064 0.00652313 C405.13699933 0.00786005 407.55439576 0.00621046 409.97178459 0.00156403 C413.34778633 -0.00349984 416.72352079 0.00420756 420.09950256 0.0153656 C421.60745644 0.00929291 421.60745644 0.00929291 423.14587402 0.00309753 C424.52343872 0.01155701 424.52343872 0.01155701 425.92883301 0.02018738 C426.72727347 0.02094143 427.52571394 0.02169548 428.34834957 0.02247238 C430.41419983 0.27415466 430.41419983 0.27415466 433.41419983 2.27415466 C434.52757987 5.61429478 434.539549 8.10052619 434.54004097 11.62082005 C434.54149441 12.27081375 434.54294785 12.92080746 434.54444534 13.59049794 C434.54811591 15.78484241 434.54461346 17.97911786 434.54118347 20.17346191 C434.54233513 21.75807034 434.54392296 23.34267849 434.54591072 24.92728609 C434.55010356 29.29857434 434.54801291 33.66984088 434.5449245 38.04112923 C434.54266808 42.75730993 434.54615283 47.4734868 434.54890442 52.18966675 C434.55337159 61.47124884 434.5523777 70.75282288 434.54949178 80.0344053 C434.54722424 87.65049529 434.54693113 95.26658303 434.54801559 102.88267326 C434.54816883 103.97152948 434.54832206 105.06038569 434.54847994 106.18223755 C434.54879977 108.39658988 434.54912399 110.61094221 434.54945253 112.82529455 C434.55231439 133.68091835 434.54901815 154.5365378 434.54365216 175.39216089 C434.5392629 192.98474511 434.53995771 210.57732254 434.54457092 228.16990662 C434.55971838 288.25821055 434.53513976 348.34629566 434.41957688 408.4345032 C434.4142847 411.22933619 434.40923272 414.02416952 434.40426445 416.81900311 C434.36827275 436.96303973 434.31579791 457.10680599 434.2084223 477.2506009 C434.20282988 478.30028168 434.20282988 478.30028168 434.19712448 479.37116814 C434.19341774 480.06386626 434.189711 480.75656438 434.18589193 481.47025335 C434.16153354 486.18447641 434.14687678 490.89864203 434.13637161 495.61291695 C434.03595031 536.55830413 433.11392289 575.82898795 414.41419983 613.27415466 C414.10401917 613.91465759 413.7938385 614.55516052 413.47425842 615.21507263 C390.93012259 661.57897758 348.77616278 692.27304906 300.97669983 708.96165466 C291.91005521 711.86337174 282.68995398 714.14781899 273.41419983 716.27415466 C272.15607483 716.56290466 270.89794983 716.85165466 269.60169983 717.14915466 C265.55126638 717.98717538 261.50463644 718.66683729 257.41419983 719.27415466 C256.52506897 719.41095642 255.63593811 719.54775818 254.71986389 719.68870544 C237.37487725 722.23168117 220.10225462 722.59131713 202.60169983 722.64915466 C201.53430573 722.65691925 200.46691162 722.66468384 199.36717224 722.67268372 C170.72562735 722.83683992 143.51543111 718.50601628 116.41419983 709.27415466 C115.68023987 709.02971619 114.94627991 708.78527771 114.19007874 708.53343201 C102.30017448 704.54008661 91.37804114 699.45215601 80.41468811 693.37425232 C78.76058479 692.4646368 77.08766779 691.58932603 75.41029358 690.72337341 C63.65460514 684.63913161 52.6531136 676.84415997 42.03919983 668.96165466 C41.04146545 668.22302185 40.04373108 667.48438904 39.01576233 666.72337341 C34.45291588 662.42772067 32.22795941 658.55597292 31.93318176 652.33227539 C31.92167209 650.41000192 31.93202718 648.48751739 31.96009827 646.56541443 C31.95951416 645.51100662 31.95893005 644.45659882 31.95832825 643.37023926 C31.96110431 639.90167269 31.99217502 636.43397648 32.02357483 632.96556091 C32.03103888 630.55418365 32.03673104 628.1428003 32.04072571 625.73141479 C32.0559689 619.39704016 32.09524004 613.06303472 32.13954163 606.72880554 C32.18052231 600.26024876 32.19874274 593.79163208 32.21888733 587.32298279 C32.26173502 574.63988294 32.32919769 561.95703847 32.41419983 549.27415466 C35.91444635 549.90579793 38.09307587 550.44717502 40.83216858 552.75071716 C41.44133118 553.25304871 42.05049377 553.75538025 42.67811584 554.27293396 C43.31289856 554.80958679 43.94768127 555.34623962 44.60169983 555.89915466 C45.94631347 557.00414063 47.29266691 558.10701294 48.64076233 559.20774841 C49.29077209 559.73997009 49.94078186 560.27219177 50.61048889 560.82054138 C82.1095696 586.20569657 120.15693535 601.89562513 159.41419983 610.27415466 C160.18417297 610.45325378 160.95414612 610.63235291 161.74745178 610.81687927 C169.97158739 612.64166103 178.34750337 613.26914484 186.72669983 613.96165466 C187.52721771 614.02830322 188.3277356 614.09495178 189.1525116 614.16362 C201.67871344 615.18328734 213.89157693 615.66470827 226.41419983 614.27415466 C227.27996643 614.18359802 228.14573303 614.09304138 229.03773499 613.9997406 C258.3424918 610.79824743 287.93504799 600.83220297 307.54310608 577.77024841 C315.16235662 567.42374935 320.21728861 555.6520933 323.41419983 543.27415466 C323.67918274 542.27110291 323.94416565 541.26805115 324.21717834 540.23460388 C327.33659345 526.31844119 326.9760656 512.08658855 327.08375549 497.89823914 C327.11394907 494.32420233 327.16034171 490.7503757 327.20521545 487.17649841 C327.29038814 480.20917187 327.3581072 473.24177461 327.41419983 466.27415466 C326.75419983 466.27415466 326.09419983 466.27415466 325.41419983 466.27415466 C324.10244833 467.59442403 322.79779641 468.92259208 321.53211975 470.28709412 C294.75436251 499.03671578 253.50643868 510.66347163 215.41419983 513.27415466 C214.52216858 513.34118591 213.63013733 513.40821716 212.71107483 513.47727966 C175.18785008 516.1723179 138.51808377 510.43707076 104.41419983 494.27415466 C103.70851868 493.94351013 103.00283752 493.6128656 102.27577209 493.27220154 C60.77560862 473.62986816 29.46458919 440.46280837 11.41419983 398.27415466 C11.12980042 397.62495056 10.845401 396.97574646 10.55238342 396.30686951 C-2.07903911 367.18070914 -7.74936849 334.56330751 -7.72624207 302.92390442 C-7.72921319 301.63282701 -7.73218431 300.3417496 -7.73524547 299.01154864 C-7.74323251 295.4624238 -7.74510032 291.91331928 -7.74584293 288.36418653 C-7.74770776 284.52382708 -7.75526136 280.68347784 -7.76197815 276.84312439 C-7.77549567 268.46793619 -7.78157385 260.09275281 -7.78598881 251.71755552 C-7.78875843 246.48782088 -7.79299668 241.25808805 -7.79749298 236.02835464 C-7.80966948 221.54245559 -7.81997687 207.05655798 -7.82336807 192.57065392 C-7.82358764 191.64574855 -7.8238072 190.72084319 -7.82403342 189.7679104 C-7.8242517 188.84086485 -7.82446998 187.9138193 -7.82469487 186.95868146 C-7.82513833 185.080278 -7.8255849 183.20187453 -7.82603455 181.32347107 C-7.82625598 180.39172867 -7.82647741 179.45998627 -7.82670555 178.50000925 C-7.83066336 163.36396273 -7.84815444 148.22796404 -7.87139407 133.09193604 C-7.89507239 117.54483396 -7.90756805 101.99775597 -7.90873599 86.45063555 C-7.90965393 77.72384756 -7.91543738 68.99712219 -7.9335556 60.27035141 C-7.94890802 52.85010608 -7.95410538 45.42994279 -7.9458175 38.00968461 C-7.94189571 34.22204318 -7.94291496 30.43456728 -7.95687485 26.64694595 C-7.97184017 22.54936556 -7.96379431 18.45216253 -7.95329285 14.35456848 C-7.96134925 13.14682184 -7.96940566 11.93907519 -7.97770619 10.69473016 C-7.96782143 9.05917828 -7.96782143 9.05917828 -7.95773697 7.39058495 C-7.95833406 6.44399179 -7.95893115 5.49739863 -7.95954633 4.52212083 C-7.8362101 3.780292 -7.71287386 3.03846316 -7.58580017 2.27415466 C-4.41369531 0.15941809 -3.63108825 0.02064438 0 0 Z " fill="#00B041" transform="translate(1315.5858001708984,1011.7258453369141)"/>
<path d="M0 0 C1.3234506 -0.00233999 1.3234506 -0.00233999 2.67363757 -0.00472724 C5.64358175 -0.00872964 8.6134752 -0.00555011 11.5834198 -0.00241089 C13.70937124 -0.00376561 15.83532244 -0.00554594 17.96127319 -0.00772095 C23.75685644 -0.01229656 29.55242196 -0.01050264 35.34800553 -0.00734186 C41.44280943 -0.00480744 47.53761182 -0.00715988 53.63241577 -0.00872803 C63.90645112 -0.01055139 74.18047929 -0.0081441 84.45451355 -0.00338745 C96.23548622 0.00200487 108.01644144 0.00033031 119.79741365 -0.00521386 C129.96104288 -0.00980138 140.12466694 -0.01036687 150.28829688 -0.00777519 C156.33467529 -0.00623646 162.38104562 -0.00594995 168.42742348 -0.00931168 C190.60665056 -0.01987082 212.7805035 -0.00224437 234.95402527 0.54934692 C236.10769512 0.57606307 236.10769512 0.57606307 237.28467143 0.60331893 C248.74106127 0.87850776 259.98669755 1.73091942 271.27653503 3.74172974 C273.32336054 4.10172646 275.37106747 4.41258565 277.42790222 4.70901489 C308.51289508 9.67620447 341.07523137 23.00724879 365.46696472 43.12698364 C366.46212097 43.92104614 367.45727722 44.71510864 368.48258972 45.53323364 C391.67901269 64.32536375 408.7309983 86.15869323 421.46696472 113.12698364 C422.01481628 114.28069458 422.56266785 115.43440552 423.12712097 116.62307739 C427.30449716 125.86458737 429.97511161 135.33073681 432.46696472 145.12698364 C432.709953 146.04640747 432.95294128 146.9658313 433.20329285 147.91311646 C437.88555868 165.95222376 440.18410043 184.50871062 440.46696472 203.12698364 C440.48211121 204.01869263 440.49725769 204.91040161 440.51286316 205.82913208 C440.60521258 212.26431005 440.57102772 218.69221779 440.46696472 225.12698364 C440.45971375 225.87592896 440.45246277 226.62487427 440.44499207 227.39651489 C439.98998186 261.14439058 430.11696861 296.11240205 413.44987488 325.37698364 C412.05388289 327.86244577 410.77328716 330.40600982 409.46696472 332.93948364 C406.07102488 339.12327493 401.82905805 344.59972348 397.46696472 350.12698364 C396.76700378 351.03319458 396.06704285 351.93940552 395.34587097 352.87307739 C361.7840863 395.30256297 309.00755438 418.30265863 256.26237488 424.94143677 C225.26694262 428.39988554 193.97412848 427.44900583 162.84196472 427.31448364 C142.58821472 427.25260864 122.33446472 427.19073364 101.46696472 427.12698364 C101.13696472 492.13698364 100.80696472 557.14698364 100.46696472 624.12698364 C82.56446472 624.20948364 64.66196472 624.29198364 46.21696472 624.37698364 C40.56281433 624.41339966 34.90866394 624.44981567 29.08317566 624.48733521 C22.18229675 624.50540161 22.18229675 624.50540161 18.95237732 624.50875854 C16.69502104 624.51490361 14.43767795 624.52897759 12.18040466 624.54928589 C8.76234604 624.57850207 5.34509016 624.58260988 1.92692566 624.58108521 C0.92016659 624.59547764 -0.08659248 624.60987007 -1.12385941 624.62469864 C-2.04459118 624.61918865 -2.96532295 624.61367867 -3.91395569 624.60800171 C-5.11413015 624.61353247 -5.11413015 624.61353247 -6.33855057 624.61917496 C-9.60671894 623.88617186 -10.54818522 622.8540002 -12.53303528 620.12698364 C-13.14171104 616.75916886 -13.06367618 613.41863714 -13.02801991 610.00446129 C-13.03293488 608.95871854 -13.03784985 607.91297579 -13.04291376 606.83554387 C-13.05458112 603.30202279 -13.03751983 599.76921044 -13.02078247 596.23571777 C-13.02324097 593.68868689 -13.02745342 591.1416572 -13.03327721 588.59463179 C-13.04191708 583.04182462 -13.03805468 577.48923958 -13.02331543 571.93644905 C-13.00145901 563.67956531 -13.00245303 555.42279574 -13.0081497 547.16589071 C-13.01706129 533.27700133 -13.00718258 519.38818392 -12.98652077 505.49930954 C-12.9660876 491.74255234 -12.95346992 477.98582625 -12.95148277 464.2290535 C-12.95135294 463.37424274 -12.95122311 462.51943199 -12.95108934 461.63871788 C-12.95058941 458.16903914 -12.95014944 454.6993604 -12.94978725 451.22968164 C-12.94648259 419.59451649 -12.92411942 387.95939475 -12.88972473 356.32424927 C-12.85724805 326.43915645 -12.83599187 296.55408555 -12.82820129 266.66897583 C-12.82795825 265.74823556 -12.82771521 264.8274953 -12.8274648 263.87885381 C-12.82624278 259.24145932 -12.82503948 254.60406481 -12.82384301 249.96667031 C-12.82348861 248.59409864 -12.82348861 248.59409864 -12.82312704 247.19379826 C-12.82265288 245.34870014 -12.82218272 243.50360202 -12.82171658 241.6585039 C-12.81424918 212.3035537 -12.79847081 182.94860755 -12.7805174 153.59366208 C-12.7752677 144.99187332 -12.77032398 136.39008462 -12.76615548 127.78829527 C-12.75728343 109.69524777 -12.74566061 91.60221035 -12.72458944 73.50917242 C-12.7159355 66.0235112 -12.70877528 58.53785676 -12.70607376 51.05219078 C-12.70359694 44.21060474 -12.6961624 37.36904336 -12.68508329 30.52746494 C-12.6818618 28.04169889 -12.68034606 25.55592998 -12.68063358 23.07016186 C-12.68075768 19.71269049 -12.67482948 16.35528519 -12.66725636 12.99782372 C-12.66873998 12.01434 -12.6702236 11.03085628 -12.67175218 10.01757002 C-12.66847999 9.12968192 -12.6652078 8.24179382 -12.66183645 7.32700002 C-12.66109747 6.55828658 -12.66035849 5.78957314 -12.65959712 4.99756535 C-12.53303528 3.12698364 -12.53303528 3.12698364 -11.53303528 1.12698364 C-7.6699918 -0.16069752 -4.02540949 -0.01083009 0 0 Z M101.46696472 107.12698364 C100.21283072 110.88938565 100.31888356 114.39980636 100.3197937 118.3193512 C100.31611701 119.16438755 100.31244033 120.0094239 100.30865222 120.88006741 C100.29760663 123.72206316 100.29377011 126.56402236 100.28996277 129.40603638 C100.28369895 131.43937293 100.27705223 133.47270834 100.27005005 135.50604248 C100.25263678 141.03694477 100.24208812 146.56783841 100.23384452 152.09876132 C100.22869672 155.55168798 100.222621 159.00461194 100.21633339 162.4575367 C100.19728332 173.25371786 100.18304987 184.04989218 100.17472142 194.84608692 C100.16493839 207.32269866 100.13859025 219.7991335 100.09822053 232.27568287 C100.06810843 241.91139646 100.05325735 251.54705919 100.04994041 261.18281895 C100.04758498 266.94202681 100.03856023 272.70104563 100.01347923 278.46020317 C99.99027827 283.87500616 99.98593306 289.28949454 99.99624062 294.70433426 C99.99673798 296.69417553 99.99035891 298.68403187 99.97668457 300.67382622 C99.95908843 303.38547666 99.9660107 306.09598284 99.97921753 308.80763245 C99.96824828 309.59936102 99.95727904 310.39108959 99.94597739 311.20680994 C99.98693358 314.6775907 100.19929584 316.74882288 102.22876167 319.61603832 C104.68872953 321.27669057 105.83347503 321.62578842 108.76596069 321.62145996 C109.61881653 321.62984894 110.47167236 321.63823792 111.35037231 321.6468811 C112.27854263 321.63564209 113.20671295 321.62440308 114.16300964 321.61282349 C115.63983719 321.61851852 115.63983719 321.61851852 117.14649963 321.62432861 C120.4137986 321.63175613 123.68021278 321.61028894 126.94743347 321.58792114 C129.23595068 321.58553395 131.52446988 321.58463198 133.81298828 321.58514404 C138.62753972 321.5820103 143.44179465 321.56542439 148.25627136 321.53860474 C154.35427394 321.50502631 160.45194466 321.49696475 166.5500288 321.4984951 C171.29060906 321.49794364 176.03112017 321.48684795 180.77167702 321.47249222 C183.01458018 321.46622587 185.25749104 321.46220983 187.50040245 321.4607048 C203.24398062 321.43861955 218.79327263 320.60117618 234.46696472 319.12698364 C235.23798208 319.05654217 236.00899944 318.98610069 236.80338097 318.91352463 C262.83480918 316.50722414 287.89130251 305.05528879 305.11930847 285.16604614 C312.76587505 275.26749574 317.70637781 265.03550888 321.46696472 253.12698364 C321.75055847 252.38706177 322.03415222 251.64713989 322.32633972 250.88479614 C333.3707245 221.92146055 329.0815385 185.80586768 317.06071472 157.85745239 C313.9415093 151.2623239 310.31424409 145.57336496 305.46696472 140.12698364 C304.18692566 138.68838989 304.18692566 138.68838989 302.88102722 137.22073364 C285.43450751 118.37921081 259.81167801 109.00077738 234.58952332 107.00076294 C233.55691565 106.91759921 232.52430798 106.83443548 231.46040916 106.74875164 C218.77483957 105.81643107 206.09365271 105.85740458 193.38102722 105.89651489 C190.77453128 105.89771066 188.1680349 105.89815902 185.5615387 105.89790344 C180.1580812 105.89882843 174.75468124 105.90736735 169.35124207 105.9211731 C163.10917358 105.93706265 156.86716699 105.94216458 150.62507975 105.94143754 C144.57660051 105.94082839 138.5281463 105.94602368 132.47967148 105.95422935 C129.91910803 105.95741325 127.35854277 105.95938278 124.79797745 105.96012306 C121.24701537 105.96227896 117.69613255 105.97100131 114.14518738 105.98171997 C113.08669586 105.98126678 112.02820435 105.9808136 110.93763733 105.98034668 C109.97670166 105.98461166 109.01576599 105.98887665 108.02571106 105.99327087 C106.76997504 105.99578464 106.76997504 105.99578464 105.48887062 105.99834919 C103.39705596 105.99963707 103.39705596 105.99963707 101.46696472 107.12698364 Z " fill="#00B041" transform="translate(268.5330352783203,903.8730163574219)"/>
<path d="M0 0 C0.86447754 0.12890625 1.72895508 0.2578125 2.61962891 0.390625 C23.31468005 3.50190466 43.45820417 8.49050971 63 16 C63.99894287 16.3719751 63.99894287 16.3719751 65.01806641 16.75146484 C82.04112777 23.11824518 98.77861618 31.61294792 113 43 C113.75796875 43.56976562 114.5159375 44.13953125 115.296875 44.7265625 C120.32316896 48.52228105 125.00680351 52.62436658 129.65234375 56.875 C131.62598771 58.66145976 133.6330777 60.37116352 135.6875 62.0625 C139.5495761 65.36901063 142.77787432 69.07577689 146 73 C146.61149902 73.7429834 146.61149902 73.7429834 147.23535156 74.50097656 C154.1521023 82.95590743 160.3006539 91.68564009 166 101 C166.60457031 101.96164062 167.20914062 102.92328125 167.83203125 103.9140625 C181.64861566 126.55704281 189.36020593 152.28668534 195 178 C195.14677952 178.60419722 195.29355904 179.20839444 195.44478643 179.83090067 C200.27714802 200.24132634 200.45143323 221.42523415 200.39217401 242.28360558 C200.38523851 245.91513991 200.39593343 249.54663565 200.40411377 253.17816162 C200.41729295 260.24414224 200.41464814 267.31002606 200.40587585 274.37601012 C200.3990492 280.11571738 200.3982038 285.85539786 200.4014473 291.59510803 C200.401907 292.41764129 200.40236669 293.24017454 200.40284032 294.08763304 C200.40379962 295.75924044 200.40477226 297.43084782 200.4057581 299.1024552 C200.41426209 314.68278056 200.4045502 330.26305247 200.388357 345.84336907 C200.37489783 359.20810582 200.37733736 372.57276457 200.39111328 385.9375 C200.40715386 401.50635067 200.41350178 417.07515515 200.40427649 432.64401293 C200.40332091 434.30149872 200.4023778 435.95898453 200.4014473 437.61647034 C200.40098447 438.43178839 200.40052164 439.24710645 200.40004479 440.08713111 C200.39745482 445.83132769 200.40182478 451.57549486 200.40888596 457.31968689 C200.41728151 464.30147888 200.41505943 471.28316964 200.39904372 478.26494998 C200.39114401 481.8259846 200.38809902 485.38685012 200.39799118 488.94788361 C200.40853455 492.80124889 200.39597377 496.65433521 200.38095093 500.50769043 C200.38764309 501.64003726 200.39433526 502.7723841 200.40123022 503.93904448 C200.39340697 504.96641863 200.38558373 505.99379279 200.37752342 507.0522995 C200.37679284 508.38651672 200.37679284 508.38651672 200.37604749 509.74768782 C199.922047 512.46689449 199.17198271 513.35258156 197 515 C195.00220585 515.38031673 195.00220585 515.38031673 192.6799469 515.38768005 C191.35720261 515.402537 191.35720261 515.402537 190.00773621 515.41769409 C189.04297867 515.41319244 188.07822113 515.4086908 187.08422852 515.40405273 C185.55702179 515.41434761 185.55702179 515.41434761 183.9989624 515.42485046 C180.62546943 515.44318716 177.25243848 515.43927105 173.87890625 515.43359375 C171.53864896 515.4381523 169.19839302 515.44345689 166.85813904 515.44947815 C161.94956021 515.45842282 157.04114397 515.4559707 152.13256836 515.44604492 C145.83616375 515.43455476 139.5403199 515.45476112 133.24398899 515.48396206 C128.40989098 515.50229127 123.57592815 515.50203809 118.74180412 515.49632454 C116.42012686 515.49617092 114.09844067 515.50224881 111.77679634 515.51461601 C108.53255979 515.52946155 105.28936939 515.51889552 102.04516602 515.50170898 C101.08243271 515.51137695 100.1196994 515.52104492 99.12779236 515.53100586 C92.67162936 515.45923642 92.67162936 515.45923642 89.40629578 513.22651672 C87.90757686 510.85367114 87.48924528 509.65037751 87.45410156 506.87402344 C87.43438293 506.07349548 87.41466431 505.27296753 87.39434814 504.44818115 C87.39250519 503.16672211 87.39250519 503.16672211 87.390625 501.859375 C87.37408875 500.97719299 87.35755249 500.09501099 87.34051514 499.18609619 C87.29200806 496.3739935 87.27065845 493.56243168 87.25 490.75 C87.22184254 488.84111858 87.19191543 486.93226239 87.16015625 485.0234375 C87.08624846 480.34900286 87.03669045 475.67486894 87 471 C86.57154785 471.442229 86.1430957 471.88445801 85.70166016 472.34008789 C81.78668362 476.32617777 77.78404544 480.00774816 73.375 483.4375 C72.77091309 483.90776611 72.16682617 484.37803223 71.54443359 484.86254883 C24.56685214 520.84602876 -34.83270879 524.61920094 -91.5 517.8125 C-147.1137863 510.41229812 -200.16434625 482.58719996 -234.77001953 437.89404297 C-250.49255341 416.70434518 -262.74088511 392.39203906 -270 367 C-270.2367041 366.18160645 -270.4734082 365.36321289 -270.71728516 364.52001953 C-274.89993399 349.85293493 -277.88020445 335.1016974 -280 320 C-280.17345947 318.8241333 -280.34691895 317.6482666 -280.52563477 316.43676758 C-281.20472431 310.90387224 -281.2521962 305.35714319 -281.3515625 299.7890625 C-281.38717537 298.01204453 -281.38717537 298.01204453 -281.42350769 296.1991272 C-281.49745094 292.34117081 -281.56276101 288.48316235 -281.625 284.625 C-281.64646088 283.30544312 -281.66792175 281.98588623 -281.69003296 280.62634277 C-283.00402391 197.38458822 -283.00402391 197.38458822 -272 160 C-271.71237793 158.98075439 -271.71237793 158.98075439 -271.41894531 157.94091797 C-258.62372601 112.67314986 -232.14311055 70.03090276 -193 43 C-191.87102419 42.19150337 -190.7421205 41.38290603 -189.61328125 40.57421875 C-137.27811606 3.78031594 -62.91450565 -10.09045024 0 0 Z M-138.796875 148.33203125 C-155.03029283 166.34993868 -164.75878811 189.67729128 -168.21875 213.5078125 C-168.38693237 214.66403107 -168.55511475 215.82024963 -168.72839355 217.01150513 C-170.50749205 230.28788811 -170.61429402 243.50116738 -170.5 256.875 C-170.4947934 258.13938904 -170.48958679 259.40377808 -170.48422241 260.70648193 C-170.36850832 284.68145637 -169.67500732 308.34391292 -161 331 C-160.69449219 331.88558594 -160.38898438 332.77117187 -160.07421875 333.68359375 C-148.30608991 366.08482955 -121.1651077 387.6599167 -91 402 C-70.64320912 411.14882663 -48.89841393 411.34147224 -27 411 C-25.93579834 410.98912354 -25.93579834 410.98912354 -24.85009766 410.97802734 C1.44759753 410.57783028 26.31347741 400.88614423 47 385 C47.76183594 384.46890625 48.52367187 383.9378125 49.30859375 383.390625 C49.86675781 382.93171875 50.42492188 382.4728125 51 382 C51 381.34 51 380.68 51 380 C51.55171875 379.78988281 52.1034375 379.57976562 52.671875 379.36328125 C69.57905299 369.46293709 78.85152751 343.65285811 83.87475586 325.86474609 C86.33612067 316.38206487 87.23454956 306.74020039 88 297 C88.11214844 295.70320313 88.22429687 294.40640625 88.33984375 293.0703125 C89.79323329 273.2803234 89.39695423 253.35109637 88.125 233.5625 C88.04660889 232.32677246 87.96821777 231.09104492 87.88745117 229.81787109 C85.83705301 200.61689859 78.8353553 173.12225516 60 150 C59.42507813 149.27167969 58.85015625 148.54335937 58.2578125 147.79296875 C39.62386469 125.19150574 9.05411473 112.46679029 -19.359375 108.53515625 C-22.58000245 108.23679863 -25.76653587 108.08431936 -29 108 C-29.68610352 107.97953613 -30.37220703 107.95907227 -31.07910156 107.93798828 C-72.06760947 106.85746335 -109.92252207 117.87103131 -138.796875 148.33203125 Z " fill="#00B041" transform="translate(1038,1007)"/>
<path d="M0 0 C1.11359894 0.00027191 2.22719788 0.00054382 3.37454224 0.00082397 C20.67817055 0.0202542 37.77147007 0.48435928 55 2.1875 C56.11165527 2.28933594 57.22331055 2.39117187 58.36865234 2.49609375 C135.38175854 9.61209159 135.38175854 9.61209159 155 27.1875 C156.26372044 29.71494088 156.12022795 31.45130308 156.11352539 34.27978516 C156.11344986 35.34073395 156.11337433 36.40168274 156.11329651 37.49478149 C156.10813522 38.64376923 156.10297394 39.79275696 156.09765625 40.9765625 C156.09553383 42.73690323 156.09553383 42.73690323 156.09336853 44.5328064 C156.08775689 48.29272985 156.07520238 52.05259445 156.0625 55.8125 C156.0574865 58.35676998 156.05292333 60.90104088 156.04882812 63.4453125 C156.03778368 69.69272853 156.02103418 75.94011006 156 82.1875 C152.06381491 80.94820408 148.43202396 79.51527052 144.75390625 77.6484375 C125.87858552 68.22996405 106.71886459 60.46711875 86 56.1875 C85.25588867 56.0229834 84.51177734 55.8584668 83.74511719 55.68896484 C27.34615963 43.49243308 -39.04791036 44.59113938 -94 62.1875 C-95.02609375 62.50332031 -96.0521875 62.81914062 -97.109375 63.14453125 C-114.46941847 68.65751803 -132.26639175 76.06463407 -147.703125 85.77734375 C-150.12508762 87.26429699 -152.60305829 88.56553027 -155.125 89.875 C-170.85446863 98.38402046 -185.26320574 109.86776884 -198.68823242 121.609375 C-200.81860877 123.45332844 -202.76612404 125.07352999 -205.30859375 126.3125 C-207.36774948 127.12856523 -207.36774948 127.12856523 -208 130.1875 C-209.70703125 131.8359375 -209.70703125 131.8359375 -211.8125 133.5625 C-214.95826806 136.22688718 -217.49268929 138.90205838 -220 142.1875 C-221.66666667 143.85416667 -223.33333333 145.52083333 -225 147.1875 C-272.65172113 197.93071982 -293.80011393 266.53140773 -291.89013672 335.13354492 C-290.98384294 362.49523731 -287.84925647 388.84903472 -280 415.1875 C-279.69578125 416.21746094 -279.3915625 417.24742187 -279.078125 418.30859375 C-278.13113898 421.30322937 -277.08963323 424.24158605 -276 427.1875 C-275.74943848 427.87295898 -275.49887695 428.55841797 -275.24072266 429.26464844 C-265.05046483 456.84243793 -250.2206461 482.16766586 -232 505.1875 C-231.57460937 505.73003418 -231.14921875 506.27256836 -230.7109375 506.83154297 C-219.26195884 521.30928053 -205.82109092 535.1666888 -191 546.1875 C-190.07646729 546.89302002 -190.07646729 546.89302002 -189.13427734 547.61279297 C-171.4463191 561.09991354 -152.51182777 571.63777256 -132 580.1875 C-130.84588623 580.67259033 -130.84588623 580.67259033 -129.66845703 581.16748047 C-118.66792208 585.74927718 -107.55581684 589.29727256 -96 592.1875 C-95.27393555 592.36909668 -94.54787109 592.55069336 -93.79980469 592.73779297 C-89.53455583 593.79217775 -85.2590396 594.78844178 -80.97021484 595.7421875 C-79.15902454 596.15155691 -77.35447678 596.5900289 -75.55078125 597.03125 C-20.59390071 609.56417601 42.71013856 599.93066951 95 581.1875 C95.70769531 580.94064453 96.41539062 580.69378906 97.14453125 580.43945312 C119.53509197 572.5731156 138.93739919 559.28372247 157 544.1875 C157.88558594 543.50429688 158.77117187 542.82109375 159.68359375 542.1171875 C163.24385868 539.1513007 164.39139606 536.66653833 165 532.1875 C165.09003274 529.49763295 165.13072865 526.83461541 165.12025452 524.14530945 C165.12111053 523.34259613 165.12196655 522.53988281 165.12284851 521.71284485 C165.12450216 519.01776909 165.11898255 516.32275562 165.11352539 513.62768555 C165.11321904 511.66466429 165.11335258 509.70164292 165.11389065 507.73862171 C165.11411646 502.48050579 165.10831945 497.22241262 165.10128021 491.96430206 C165.09558643 487.03076607 165.09531715 482.09723562 165.09460449 477.16369629 C165.0893566 462.73412785 165.07539546 448.30456364 165.0625 433.875 C165.041875 401.638125 165.02125 369.40125 165 336.1875 C97.68 336.1875 30.36 336.1875 -39 336.1875 C-39 287.1875 -39 287.1875 -37 285.1875 C-35.15204769 284.935651 -35.15204769 284.935651 -32.85794163 284.93302441 C-31.98496073 284.92719221 -31.11197984 284.92136002 -30.21254498 284.91535109 C-29.24767995 284.91913042 -28.28281491 284.92290974 -27.28871155 284.92680359 C-26.26823131 284.92297804 -25.24775106 284.91915249 -24.19634718 284.91521102 C-20.75462599 284.90483862 -17.31307032 284.9088812 -13.87133789 284.9128418 C-11.41288599 284.90849767 -8.95443545 284.90331553 -6.49598694 284.89735413 C-0.49808348 284.88531784 5.49975417 284.88281662 11.49766367 284.88515439 C16.37126107 284.88693488 21.24484486 284.88519371 26.11844063 284.88092995 C26.81114379 284.88033476 27.50384695 284.87973957 28.21754112 284.87912634 C29.62461086 284.87791464 31.0316806 284.8767005 32.43875033 284.87548397 C45.64497916 284.86459852 58.85118248 284.86677565 72.05741275 284.87286881 C84.14769554 284.87803871 96.23789778 284.86678243 108.32816463 284.84777059 C120.7323962 284.82841407 133.13658962 284.82013235 145.54083639 284.82389385 C152.50890443 284.82580924 159.47690389 284.82328554 166.44495964 284.80917931 C172.99564944 284.79605262 179.54620418 284.79849576 186.09690285 284.81159019 C188.50641813 284.81396686 190.91594463 284.81118262 193.32544708 284.80296707 C196.60439826 284.79258993 199.8827973 284.80052743 203.16172791 284.8132782 C204.12436222 284.80590391 205.08699653 284.79852963 206.07880157 284.79093188 C206.95439021 284.79813842 207.82997886 284.80534497 208.73210049 284.81276989 C209.48931784 284.81271487 210.2465352 284.81265986 211.02669853 284.81260318 C213.61026881 285.30344166 214.4761782 286.05937924 216 288.1875 C216.37834883 290.24251521 216.37834883 290.24251521 216.38311005 292.65448952 C216.39216669 293.57452881 216.40122333 294.49456809 216.41055441 295.44248736 C216.40256252 296.96098648 216.40256252 296.96098648 216.39440918 298.51016235 C216.40050028 299.58443336 216.40659139 300.65870436 216.41286707 301.76552904 C216.42958377 305.38366823 216.42470876 309.00145882 216.41992188 312.61962891 C216.42725736 315.20642464 216.43584205 317.7932171 216.44558716 320.38000488 C216.46666856 326.68926798 216.47118034 332.99843923 216.46939927 339.30773337 C216.46809245 344.43774522 216.47189175 349.56772838 216.47932434 354.69773483 C216.48142353 356.1746341 216.48352113 357.65153336 216.48561716 359.12843263 C216.48718245 360.23106526 216.48718245 360.23106526 216.48877937 361.35597329 C216.50769431 375.26819702 216.50662835 389.18036805 216.49981004 403.09259932 C216.49423964 415.81253552 216.51503621 428.53227 216.54817051 441.25215907 C216.58193143 454.31412821 216.59707245 467.37600081 216.59245348 480.43801439 C216.59021043 487.77071798 216.59542699 495.10323535 216.62034607 502.43590164 C216.64359357 509.33555047 216.64074703 516.23477367 216.62041855 523.13442993 C216.61700543 525.6655955 216.62211044 528.1967892 216.63640213 530.72791672 C216.65458234 534.1867454 216.64185211 537.64414996 216.62145996 541.10293579 C216.63397781 542.10188421 216.64649566 543.10083263 216.65939283 544.13005221 C216.54463058 553.22605639 213.03788581 559.66214305 206.62890625 566.0546875 C205.4066333 567.28119019 205.4066333 567.28119019 204.15966797 568.5324707 C203.30260254 569.36738037 202.44553711 570.20229004 201.5625 571.0625 C200.23049561 572.37577271 200.23049561 572.37577271 198.87158203 573.71557617 C191.95992356 580.44436342 184.82223186 586.55549306 177 592.1875 C176.13503906 592.82429687 175.27007813 593.46109375 174.37890625 594.1171875 C136.14551929 621.64522611 91.18793372 638.94988253 45 647.1875 C44.33447113 647.3068692 43.66894226 647.4262384 42.98324585 647.54922485 C31.08496538 649.65019297 19.23752677 650.9125985 7.18383789 651.69555664 C4.43483136 651.87517437 1.68725389 652.07045169 -1.06054688 652.26757812 C-88.580055 658.33667039 -171.7255243 630.59074356 -238 573.1875 C-238.61238525 572.66414062 -239.22477051 572.14078125 -239.85571289 571.6015625 C-251.91241488 561.21150036 -263.30840349 549.82314752 -273 537.1875 C-273.89613396 536.06716397 -274.79472846 534.94879321 -275.6953125 533.83203125 C-281.55178038 526.54026267 -287.00748789 519.10734853 -292 511.1875 C-292.68320312 510.10726563 -293.36640625 509.02703125 -294.0703125 507.9140625 C-305.84111242 488.96822252 -315.29223727 469.10215125 -323 448.1875 C-323.32838867 447.29885254 -323.65677734 446.41020508 -323.99511719 445.49462891 C-331.27978899 425.47129645 -336.25928319 404.73980117 -339.8125 383.75 C-340.00730957 382.604104 -340.20211914 381.45820801 -340.40283203 380.27758789 C-343.37009488 361.74592031 -344.38056871 343.31421788 -344.3125 324.5625 C-344.31067719 323.51434113 -344.30885437 322.46618225 -344.30697632 321.38626099 C-344.23585974 297.03311738 -341.9634606 273.84987343 -336 250.1875 C-335.75266113 249.19041016 -335.50532227 248.19332031 -335.25048828 247.16601562 C-324.03513868 202.64255619 -302.43068768 161.31004014 -273.37060547 125.87548828 C-272.07090648 124.27482587 -270.79783777 122.65729437 -269.53515625 121.02734375 C-268.82230469 120.11082031 -268.10945313 119.19429688 -267.375 118.25 C-266.76398438 117.45722656 -266.15296875 116.66445312 -265.5234375 115.84765625 C-264.76933594 115.02587891 -264.76933594 115.02587891 -264 114.1875 C-263.34 114.1875 -262.68 114.1875 -262 114.1875 C-261.63442993 113.33514771 -261.63442993 113.33514771 -261.26147461 112.46557617 C-259.76697555 109.76668499 -257.99489359 107.92325701 -255.81640625 105.73828125 C-254.97682373 104.89458984 -254.13724121 104.05089844 -253.2722168 103.18164062 C-251.93090698 101.85422852 -251.93090698 101.85422852 -250.5625 100.5 C-249.64960205 99.59314453 -248.7367041 98.68628906 -247.79614258 97.75195312 C-241.7762174 91.8204853 -235.70404123 86.33314568 -229 81.1875 C-227.87718617 80.26800101 -226.7576217 79.34452564 -225.640625 78.41796875 C-216.8712281 71.18186409 -207.7264248 64.73557867 -198.16845703 58.58398438 C-196.17656401 57.30120706 -194.19526054 56.00350969 -192.21484375 54.703125 C-173.54514504 42.59444957 -153.69133701 32.34875808 -133 24.1875 C-132.24299805 23.88295898 -131.48599609 23.57841797 -130.70605469 23.26464844 C-100.72981731 11.28197678 -69.05907481 4.39174581 -37 1.1875 C-36.09314453 1.09106201 -35.18628906 0.99462402 -34.25195312 0.89526367 C-22.8644907 -0.16125651 -11.42543848 -0.01043689 0 0 Z " fill="#00B041" transform="translate(344,117.8125)"/>
<path d="M0 0 C39.23382693 0.26597565 76.63974923 8.1560794 111.34033203 26.99169922 C112.25419678 27.48669922 112.25419678 27.48669922 113.18652344 27.99169922 C131.7858788 38.15755985 148.88952936 50.50498604 164.34033203 64.99169922 C165.68907669 66.16462987 167.0428612 67.33180362 168.40283203 68.49169922 C214.05643996 108.2515012 239.91698219 168.52549307 245.34033203 227.99169922 C245.4832093 230.80456152 245.52348755 233.61304547 245.5456543 236.42919922 C245.55554823 237.23554558 245.56544216 238.04189194 245.57563591 238.87267303 C245.60737529 241.57898585 245.63225658 244.28531162 245.65673828 246.99169922 C245.67762251 248.98197637 245.69871188 250.97225139 245.71998596 252.96252441 C245.77685786 258.47282407 245.82612852 263.98316747 245.87296295 269.49356079 C245.9029254 273.00263459 245.93438051 276.51169277 245.96600342 280.02075195 C246.37572919 326.3369329 246.44934576 372.65378775 246.46244544 418.97154999 C246.46408327 424.63485046 246.46703683 430.29814804 246.4711476 435.96144724 C246.47835587 445.92603057 246.47960499 455.8905941 246.47471428 465.85517883 C246.47321807 469.1939587 246.47382703 472.53272665 246.47647285 475.87150574 C246.49079238 496.2740526 246.12683994 516.60029065 245.34033203 536.99169922 C228.84033203 536.99169922 212.34033203 536.99169922 195.34033203 536.99169922 C195.33002457 533.5607637 195.3197171 530.12982819 195.30909729 526.59492493 C195.21378764 495.01118111 195.11392917 463.42745442 195.00921509 431.84374036 C194.99544826 427.69017924 194.98172075 423.53661798 194.96801758 419.38305664 C194.96528927 418.55628212 194.96256097 417.7295076 194.95974999 416.87767931 C194.91587478 403.55360052 194.87517331 390.22951389 194.83567942 376.90542147 C194.79497465 363.19708914 194.75077885 349.48877115 194.70345348 335.78046006 C194.67444245 327.34619571 194.64803908 318.91193198 194.62515306 310.47764876 C194.60911968 304.66570936 194.58964499 298.85378732 194.56766362 293.04186741 C194.55514509 289.70670846 194.544468 286.37157375 194.53691292 283.03639793 C194.39316546 221.38922494 188.13960623 166.29640607 146.34033203 117.99169922 C145.58880859 117.11771484 144.83728516 116.24373047 144.06298828 115.34326172 C139.46447627 110.10803266 134.67436986 105.45976199 129.34033203 100.99169922 C127.9578125 99.76 127.9578125 99.76 126.54736328 98.50341797 C108.88339218 82.8739227 87.56992675 70.81220483 65.34033203 62.99169922 C64.62973633 62.73936523 63.91914062 62.48703125 63.18701172 62.22705078 C45.70235549 56.11686206 27.88758841 52.40178931 9.34033203 51.99169922 C8.32060303 51.96897949 8.32060303 51.96897949 7.28027344 51.94580078 C2.29694982 51.85114418 -2.67679414 51.89370193 -7.65966797 51.99169922 C-8.32514648 51.9989502 -8.990625 52.00620117 -9.67626953 52.01367188 C-54.75561126 52.66587422 -99.76640302 73.87532858 -132.10888672 104.61669922 C-134.65966797 106.99169922 -134.65966797 106.99169922 -137.29248047 109.08544922 C-140.89953376 111.990139 -143.6808033 115.46226618 -146.65966797 118.99169922 C-147.80822266 120.30847656 -147.80822266 120.30847656 -148.97998047 121.65185547 C-165.93201332 141.39379968 -178.3720631 164.37263769 -186.65966797 188.99169922 C-187.27068359 190.78220703 -187.27068359 190.78220703 -187.89404297 192.60888672 C-193.82330274 211.62812766 -195.46226382 231.18765804 -195.65966797 250.99169922 C-195.67450226 252.26790131 -195.67450226 252.26790131 -195.68963623 253.56988525 C-195.75884432 259.60733493 -195.80597521 265.64458544 -195.83288574 271.68237305 C-195.84225166 273.7295871 -195.85412685 275.77679154 -195.86877441 277.82397461 C-195.97612161 295.10047528 -195.51230197 312.38724333 -191.34716797 329.24169922 C-191.12988037 330.15443604 -190.91259277 331.06717285 -190.6887207 332.00756836 C-185.9839592 351.3471051 -178.96495744 369.41921668 -169.65966797 386.99169922 C-169.11697266 388.01908203 -168.57427734 389.04646484 -168.01513672 390.10498047 C-160.42618227 403.7503268 -150.46495269 415.79230077 -139.65966797 426.99169922 C-138.57298828 428.15572266 -138.57298828 428.15572266 -137.46435547 429.34326172 C-105.1580753 463.08007828 -54.71469597 484.81438723 -8.31591797 486.23779297 C17.49279575 486.6761951 40.87306104 482.37416244 65.32202148 474.22729492 C66.19689209 473.93685303 67.0717627 473.64641113 67.97314453 473.34716797 C68.7454541 473.08572998 69.51776367 472.82429199 70.31347656 472.55493164 C72.34033203 471.99169922 72.34033203 471.99169922 75.34033203 471.99169922 C75.44171878 478.75426434 75.51179174 485.51663361 75.56005859 492.27978516 C75.58017891 494.58064091 75.60747837 496.88144551 75.64208984 499.18212891 C75.69058815 502.48857239 75.71329681 505.79434007 75.73095703 509.10107422 C75.76192474 510.64501862 75.76192474 510.64501862 75.79351807 512.22015381 C75.79574476 519.30059159 75.79574476 519.30059159 73.65625 522.54736328 C71.09116428 524.14709416 68.79052901 525.11507259 65.89501953 525.99169922 C64.82654785 526.31968506 63.75807617 526.6476709 62.65722656 526.9855957 C61.52140137 527.31760986 60.38557617 527.64962402 59.21533203 527.99169922 C58.0498584 528.33982666 56.88438477 528.6879541 55.68359375 529.04663086 C48.98604809 531.01587342 42.27277578 532.87855615 35.46533203 534.42919922 C34.48089111 534.65639648 34.48089111 534.65639648 33.4765625 534.88818359 C21.43062004 537.44586295 9.02959061 537.19667506 -3.22216797 537.17919922 C-4.49231247 537.17779434 -4.49231247 537.17779434 -5.78811646 537.17636108 C-17.83520604 537.14744248 -29.76507488 537.10831349 -41.65966797 534.99169922 C-42.9484082 534.76571045 -42.9484082 534.76571045 -44.26318359 534.53515625 C-81.91614019 527.6681752 -116.16147345 511.89769821 -146.65966797 488.99169922 C-147.66384766 488.25564453 -148.66802734 487.51958984 -149.70263672 486.76123047 C-158.6323722 480.13979659 -166.6698277 472.70654232 -174.65966797 464.99169922 C-175.52688477 464.16532959 -175.52688477 464.16532959 -176.41162109 463.32226562 C-184.65688695 455.4532906 -191.86228995 447.13507496 -198.65966797 437.99169922 C-199.37896484 437.03263672 -200.09826172 436.07357422 -200.83935547 435.08544922 C-202.81467003 432.41070422 -204.74681682 429.71141144 -206.65966797 426.99169922 C-207.32740234 426.04939453 -207.99513672 425.10708984 -208.68310547 424.13623047 C-213.38646899 417.31545234 -217.25427615 410.29904992 -220.79638672 402.8125 C-221.66554692 400.97929956 -222.55209539 399.15527882 -223.44091797 397.33154297 C-242.38460618 358.08697586 -247.4104712 316.27601103 -247.18115234 273.17626953 C-247.15836415 268.8572973 -247.17192884 264.5393118 -247.19492626 260.22037315 C-247.32198647 231.99848663 -245.81134382 204.2075034 -237.65966797 176.99169922 C-237.42973145 176.18748535 -237.19979492 175.38327148 -236.96289062 174.5546875 C-228.90539248 146.66166921 -214.69200326 120.67222332 -196.65966797 97.99169922 C-195.94423828 97.08419922 -195.22880859 96.17669922 -194.49169922 95.24169922 C-186.5823891 85.38655883 -177.96918087 76.22548192 -169.09716797 67.24169922 C-168.4891333 66.62061279 -167.88109863 65.99952637 -167.25463867 65.35961914 C-165.76182498 63.86384562 -164.21508602 62.42226058 -162.65966797 60.99169922 C-161.99966797 60.99169922 -161.33966797 60.99169922 -160.65966797 60.99169922 C-160.65966797 60.33169922 -160.65966797 59.67169922 -160.65966797 58.99169922 C-157.5478276 56.07023026 -154.05296494 53.57566324 -150.65966797 50.99169922 C-149.85601807 50.36980713 -149.85601807 50.36980713 -149.03613281 49.73535156 C-126.57405956 32.39999314 -101.68618556 19.54389513 -74.65966797 10.99169922 C-73.95938477 10.76144043 -73.25910156 10.53118164 -72.53759766 10.29394531 C-49.33973472 2.73328362 -24.29311546 -0.05510113 0 0 Z " fill="#00B041" transform="translate(1175.65966796875,217.00830078125)"/>
<path d="M0 0 C1.30590088 0.29632324 1.30590088 0.29632324 2.63818359 0.59863281 C45.75990842 10.60764411 84.57810545 34.33725703 116 65 C116.87229248 65.84159668 116.87229248 65.84159668 117.76220703 66.70019531 C153.55440977 101.27825269 178.37990504 148.0806236 186.53303528 197.20451355 C186.82024179 198.92387665 187.11428281 200.64213501 187.41972351 202.35835266 C190.69267561 221.03937933 190.49541731 239.8150592 190.44604492 258.71337891 C190.4368644 262.39752949 190.44377363 266.08104566 190.46655273 269.76513672 C190.82453245 327.94268924 178.62254738 382.83623321 143 430 C142.56574707 430.5784668 142.13149414 431.15693359 141.68408203 431.75292969 C134.96182797 440.65862688 127.73710319 448.96474254 120 457 C119.49823242 457.52368164 118.99646484 458.04736328 118.47949219 458.58691406 C111.71979054 465.60744021 104.69708194 471.99924465 97 478 C95.98164062 478.81210937 94.96328125 479.62421875 93.9140625 480.4609375 C57.15352534 509.55273707 11.51247849 527.56980805 -35.25 531.125 C-36.89657593 531.2502002 -36.89657593 531.2502002 -38.57641602 531.37792969 C-47.07875127 531.99100367 -55.47556984 532.39169747 -64 532 C-64.91765137 531.95891113 -65.83530273 531.91782227 -66.78076172 531.87548828 C-101.29422839 530.15119218 -133.82135957 521.90163764 -165 507 C-166.34336426 506.36022217 -166.34336426 506.36022217 -167.71386719 505.70751953 C-187.38617806 496.20054791 -205.07107066 483.94540913 -221 469 C-221.68690918 468.35691895 -222.37381836 467.71383789 -223.08154297 467.05126953 C-241.94497069 449.20909664 -255.87719964 429.40510018 -267 406 C-267.37253906 405.22833496 -267.74507812 404.45666992 -268.12890625 403.66162109 C-269.2711835 401.28268351 -270.38887717 398.89362644 -271.5 396.5 C-271.850625 395.77079346 -272.20125 395.04158691 -272.5625 394.2902832 C-274.83963352 389.27404728 -275.63441539 385.5154131 -275 380 C-273.56640625 377.41796875 -273.56640625 377.41796875 -271.5625 375.1875 C-270.45841797 373.91519531 -270.45841797 373.91519531 -269.33203125 372.6171875 C-268.56246094 371.75351562 -267.79289062 370.88984375 -267 370 C-265.5751658 368.27755717 -264.15864979 366.54820377 -262.75 364.8125 C-262.01007813 363.90886719 -261.27015625 363.00523437 -260.5078125 362.07421875 C-257.53695571 358.43237406 -254.57447154 354.78418255 -251.625 351.125 C-251.11291992 350.49440674 -250.60083984 349.86381348 -250.07324219 349.21411133 C-247.43678404 345.93340918 -245.06066837 342.68677402 -243 339 C-240 340 -240 340 -239.12792969 341.69555664 C-238.89493164 342.42637451 -238.66193359 343.15719238 -238.421875 343.91015625 C-238.15221924 344.72677734 -237.88256348 345.54339844 -237.60473633 346.38476562 C-237.32267334 347.26841797 -237.04061035 348.15207031 -236.75 349.0625 C-227.86154682 375.44929069 -214.27559098 399.33852186 -195.140625 419.70703125 C-193.45856543 421.50879944 -191.89744459 423.31649537 -190.375 425.25 C-162.79921798 457.17985287 -114.40592733 475.5691814 -73.375 479.125 C-72.41207031 479.2084668 -71.44914062 479.29193359 -70.45703125 479.37792969 C-27.88413117 482.85008698 15.59020581 472.30376873 51 448 C51.54897949 447.62617187 52.09795898 447.25234375 52.66357422 446.8671875 C59.772414 442.00376056 66.46833841 436.95871749 72.77734375 431.0703125 C74.78126734 429.20374044 76.83752915 427.44383926 78.9375 425.6875 C107.47093712 400.64912244 125.22404225 364.38033396 134 328 C134.1635498 327.35659668 134.32709961 326.71319336 134.49560547 326.05029297 C142.90803975 291.22169231 140.54582211 251.34882189 137 216 C136.89582764 214.85990479 136.89582764 214.85990479 136.78955078 213.69677734 C133.44652596 177.80817248 116.12962252 144.33890739 93.18823242 117.12402344 C92.41056519 116.20024902 92.41056519 116.20024902 91.6171875 115.2578125 C91.15940918 114.7230127 90.70163086 114.18821289 90.22998047 113.63720703 C88.88682103 111.84934932 87.94225228 110.02366966 87 108 C86.34 108 85.68 108 85 108 C83.66015625 106.6015625 83.66015625 106.6015625 82.0625 104.625 C62.46392903 81.73322654 32.6416792 63.84651253 4 55 C2.51886719 54.51660156 2.51886719 54.51660156 1.0078125 54.0234375 C-15.57476368 48.91210226 -32.67439066 46.32985051 -50 46 C-51.19753906 45.97164063 -52.39507813 45.94328125 -53.62890625 45.9140625 C-57.09048862 45.87468159 -60.53921232 45.91933791 -64 46 C-65.25425781 46.01675781 -66.50851562 46.03351563 -67.80078125 46.05078125 C-85.56777562 46.53079497 -103.43876325 50.65274186 -120 57 C-120.64388672 57.23912109 -121.28777344 57.47824219 -121.95117188 57.72460938 C-138.45702377 63.89250216 -154.07790109 72.17389192 -168 83 C-169.25004187 83.9162664 -170.5028672 84.82874232 -171.7578125 85.73828125 C-179.50534258 91.38467597 -186.74137908 97.2623779 -193.64453125 103.91796875 C-196.33215493 106.46508452 -199.17521565 108.75944391 -202.07006836 111.06738281 C-207.79543392 115.73781283 -213.03500276 120.76118465 -218.234375 126.00390625 C-219.61777069 127.38798927 -219.61777069 127.38798927 -221.02911377 128.80003357 C-222.96149885 130.73396517 -224.89053537 132.67115034 -226.81689453 134.61108398 C-229.26459581 137.0758321 -231.71888673 139.53388757 -234.17550278 141.98974705 C-236.55209485 144.36667881 -238.92441571 146.7478492 -241.296875 149.12890625 C-242.16681091 149.99995499 -243.03674683 150.87100372 -243.93304443 151.76844788 C-248.28609221 156.15516419 -252.5091436 160.59951607 -256.53216553 165.29185486 C-258.7914425 167.92101574 -261.14758608 170.45385788 -263.5 173 C-267.73913422 177.6068508 -271.90483917 182.26497029 -276 187 C-276.99971494 188.14608205 -277.99974575 189.29188861 -279 190.4375 C-284.66819843 196.93972263 -290.25941775 203.48222193 -295.6875 210.1875 C-298.42988196 213.52282941 -301.24201132 216.79323751 -304.0625 220.0625 C-308.07754945 224.72298146 -312.00592517 229.43047584 -315.8203125 234.2578125 C-318.62035127 237.78044192 -321.4680597 241.26320023 -324.3125 244.75 C-328.96910737 250.46532469 -333.55991161 256.22657279 -338.09667969 262.03735352 C-341.73190977 266.68483263 -345.45659839 271.25054453 -349.22265625 275.79296875 C-351.11493136 278.07506357 -351.11493136 278.07506357 -353 281 C-353.99 281 -354.98 281 -356 281 C-356.09291788 271.88098422 -356.16387492 262.76213287 -356.20724869 253.64274597 C-356.22807209 249.40765593 -356.25629279 245.17289116 -356.30175781 240.93798828 C-356.34540424 236.84660674 -356.36917653 232.75553693 -356.37950897 228.66394043 C-356.3868668 227.10749407 -356.40123476 225.55106365 -356.42292023 223.99475098 C-356.56067336 213.69344168 -356.01655999 206.37095588 -349.15234375 198.2109375 C-348.63510742 197.58662842 -348.11787109 196.96231934 -347.58496094 196.3190918 C-347.04129883 195.6775415 -346.49763672 195.03599121 -345.9375 194.375 C-344.77371981 192.97350243 -343.61097752 191.57114241 -342.44921875 190.16796875 C-341.86962402 189.47106934 -341.2900293 188.77416992 -340.69287109 188.05615234 C-338.15684468 184.97590797 -335.70123452 181.83533669 -333.25 178.6875 C-326.20039244 169.6747743 -318.92486216 160.87734 -311.45703125 152.20898438 C-306.31945598 146.23490646 -301.29944845 140.16474498 -296.40625 133.98828125 C-295.31254643 132.62433115 -294.16369339 131.30474713 -293 130 C-292.34 130 -291.68 130 -291 130 C-290.7421875 129.42765625 -290.484375 128.8553125 -290.21875 128.265625 C-288.88634058 125.78871005 -287.34943882 123.8658834 -285.5 121.75 C-284.8915625 121.04359375 -284.283125 120.3371875 -283.65625 119.609375 C-282 118 -282 118 -280 118 C-279.73734848 117.412686 -279.47469696 116.82537201 -279.2040863 116.22026062 C-277.93983361 113.8890569 -276.60300031 112.34930058 -274.73461914 110.47583008 C-274.06954849 109.80445511 -273.40447784 109.13308014 -272.71925354 108.44136047 C-271.99850143 107.72465683 -271.27774933 107.00795319 -270.53515625 106.26953125 C-269.78721298 105.51967453 -269.03926971 104.76981781 -268.2686615 103.99723816 C-266.68148617 102.40870175 -265.09178198 100.82268861 -263.49975586 99.23901367 C-261.09587342 96.84572633 -258.70269966 94.4421139 -256.31054688 92.03710938 C-249.21580846 84.93649431 -242.18148161 77.94485939 -234.24731445 71.77587891 C-231.76281443 69.81257058 -229.4476524 67.71382535 -227.125 65.5625 C-221.36419377 60.32787765 -215.22627637 55.65611087 -209 51 C-208.43716309 50.57493164 -207.87432617 50.14986328 -207.29443359 49.71191406 C-180.60643235 29.57660118 -152.60743577 11.72011273 -120 3 C-118.86949219 2.67644531 -117.73898437 2.35289062 -116.57421875 2.01953125 C-112.40343456 0.8891318 -108.22170225 -0.08242682 -104 -1 C-103.18192871 -1.18626953 -102.36385742 -1.37253906 -101.52099609 -1.56445312 C-69.00544931 -8.67628727 -32.31955269 -7.63437043 0 0 Z " fill="#00B041" transform="translate(1810,223)"/>
<path d="M0 0 C3.69825559 -0.04174103 7.38887563 0.00764874 11.0859375 0.0859375 C11.94687012 0.09850586 12.80780273 0.11107422 13.69482422 0.12402344 C60.35994464 0.89743487 119.07995307 6.78747821 158.0859375 35.0859375 C160.17551071 38.26095227 160.33020819 40.83492743 160.31298828 44.58886719 C160.31283722 45.68970642 160.31268616 46.79054565 160.31253052 47.92474365 C160.30220795 49.10715637 160.29188538 50.28956909 160.28125 51.5078125 C160.27700516 53.33049652 160.27700516 53.33049652 160.27267456 55.19000244 C160.26147704 59.07208085 160.23637284 62.95392879 160.2109375 66.8359375 C160.20090716 69.46744459 160.19178141 72.09895529 160.18359375 74.73046875 C160.16153907 81.18237034 160.12806554 87.63413745 160.0859375 94.0859375 C156.154828 93.24180543 153.78366814 91.59978968 150.5234375 89.2109375 C132.78295971 76.6171985 113.23504046 66.50878441 92.0859375 61.0859375 C90.83554687 60.76109375 89.58515625 60.43625 88.296875 60.1015625 C83.26371492 58.87955095 78.19110175 57.95246658 73.0859375 57.0859375 C71.9932959 56.89966797 70.9006543 56.71339844 69.77490234 56.52148438 C49.08594137 53.19501293 28.45233623 52.66407438 7.5234375 52.5859375 C6.25968292 52.57558472 4.99592834 52.56523193 3.69387817 52.55456543 C-22.52233194 52.38528178 -47.04562426 55.67865074 -71.9140625 64.0859375 C-72.86877441 64.4065918 -73.82348633 64.72724609 -74.80712891 65.05761719 C-97.87671535 72.99158122 -118.35749135 85.31900913 -136.9140625 101.0859375 C-137.50670898 101.58754395 -138.09935547 102.08915039 -138.70996094 102.60595703 C-144.97707936 107.97287623 -150.4827501 113.62742722 -155.390625 120.28515625 C-155.89335937 120.87941406 -156.39609375 121.47367187 -156.9140625 122.0859375 C-157.5740625 122.0859375 -158.2340625 122.0859375 -158.9140625 122.0859375 C-159.18790771 122.66754639 -159.46175293 123.24915527 -159.74389648 123.84838867 C-160.88997117 126.03987094 -162.15720747 127.90828797 -163.63671875 129.88671875 C-164.43783081 130.9696521 -164.43783081 130.9696521 -165.25512695 132.07446289 C-165.82320068 132.84137451 -166.39127441 133.60828613 -166.9765625 134.3984375 C-199.23371283 178.63134961 -206.7739491 229.2853426 -198.6015625 283.0234375 C-192.33273638 321.16115106 -171.76473124 360.21027776 -142.9140625 386.0859375 C-142.2540625 386.4159375 -141.5940625 386.7459375 -140.9140625 387.0859375 C-140.9140625 387.7459375 -140.9140625 388.4059375 -140.9140625 389.0859375 C-140.05167969 389.47458984 -140.05167969 389.47458984 -139.171875 389.87109375 C-136.72822289 391.18593078 -134.89030735 392.71214938 -132.7890625 394.5234375 C-115.82749666 408.24711265 -95.62640195 417.59483378 -74.9140625 424.0859375 C-73.74746094 424.45460938 -72.58085937 424.82328125 -71.37890625 425.203125 C-24.48660574 438.36766638 40.75678029 437.00794498 84.0859375 413.0859375 C85.96654246 411.20533254 85.21374749 407.97235606 85.21533203 405.47070312 C85.21708435 404.77965988 85.21883667 404.08861664 85.22064209 403.37663269 C85.22506004 401.08179243 85.22212283 398.78702861 85.21875 396.4921875 C85.21942306 394.90417465 85.22039309 393.31616191 85.22164917 391.72814941 C85.22312607 388.395742 85.22097186 385.06336134 85.21630859 381.73095703 C85.2106113 377.4499524 85.21389035 373.16901045 85.21988106 368.88800812 C85.2234869 365.60760014 85.22234798 362.32720713 85.21975327 359.04679871 C85.21908406 357.46787 85.2199122 355.88893996 85.22223282 354.31001282 C85.22475973 352.10702897 85.22091825 349.90414801 85.21533203 347.70117188 C85.21453644 346.44510132 85.21374084 345.18903076 85.21292114 343.89489746 C85.40667026 341.18185291 85.40667026 341.18185291 84.0859375 340.0859375 C82.58736447 339.98458064 81.08405177 339.95242002 79.58206177 339.94790649 C78.60898071 339.94245316 77.63589966 339.93699982 76.6333313 339.93138123 C75.55695404 339.9303389 74.48057678 339.92929657 73.37158203 339.92822266 C72.2448407 339.92314194 71.11809937 339.91806122 69.95721436 339.91282654 C67.50120964 339.90209584 65.04519498 339.89348634 62.58917618 339.88670731 C58.70684869 339.874964 54.82463477 339.85552358 50.94235229 339.83358765 C39.90089698 339.77181405 28.85945254 339.71763782 17.81787109 339.68457031 C11.0733808 339.66428278 4.32912328 339.62841352 -2.4152565 339.58381271 C-4.99171667 339.56960903 -7.56821316 339.5609205 -10.14471054 339.55775833 C-13.74366619 339.55287372 -17.34207301 339.52977826 -20.94091797 339.50244141 C-22.01324677 339.50544754 -23.08557556 339.50845367 -24.19039917 339.5115509 C-25.16911987 339.50045792 -26.14784058 339.48936493 -27.15621948 339.47793579 C-28.43325902 339.47297057 -28.43325902 339.47297057 -29.73609734 339.46790504 C-31.9140625 339.0859375 -31.9140625 339.0859375 -33.64892769 337.93643761 C-42.84210687 324.48966585 -35.31123609 305.37005452 -34.9140625 289.0859375 C20.8559375 289.0859375 76.6259375 289.0859375 134.0859375 289.0859375 C134.17875 325.004375 134.17875 325.004375 134.2734375 361.6484375 C134.30074951 369.20693604 134.32806152 376.76543457 134.35620117 384.55297852 C134.36975098 393.78894043 134.36975098 393.78894043 134.37226868 398.11387634 C134.37506155 401.13196948 134.38629561 404.14990401 134.40266418 407.16795349 C134.423285 411.02124794 134.42940297 414.8743127 134.42515433 418.7276572 C134.42604237 420.13958233 134.43196568 421.55151572 134.44358289 422.96339333 C134.54765843 436.23156556 134.54765843 436.23156556 131.0859375 442.0859375 C127.92677088 445.12976947 124.35051743 447.53237085 120.72119141 449.98046875 C119.22582605 450.99136967 117.75408656 452.03699424 116.28515625 453.0859375 C86.68154368 472.95520926 46.84455811 479.48557699 12.0859375 483.0859375 C10.85230469 483.21871094 9.61867188 483.35148437 8.34765625 483.48828125 C-38.01286273 487.62053752 -87.49099932 479.65960434 -128.9140625 458.0859375 C-129.92823242 457.55830811 -129.92823242 457.55830811 -130.96289062 457.02001953 C-149.96096974 447.00325981 -166.33497682 433.78555866 -181.9140625 419.0859375 C-182.77 418.28414062 -183.6259375 417.48234375 -184.5078125 416.65625 C-190.87932108 410.50653444 -196.29289576 403.81659539 -201.62646484 396.77490234 C-202.78387506 395.25670669 -203.96658865 393.75788094 -205.15234375 392.26171875 C-216.19453426 378.11075797 -225.47061407 362.40592333 -232.9140625 346.0859375 C-233.41413818 345.00892578 -233.41413818 345.00892578 -233.92431641 343.91015625 C-239.71852521 331.31570519 -243.62282811 318.53469628 -246.9140625 305.0859375 C-247.22085938 303.8896875 -247.52765625 302.6934375 -247.84375 301.4609375 C-248.66304856 298.01481573 -249.31551217 294.57748108 -249.9140625 291.0859375 C-250.04941406 290.32861328 -250.18476563 289.57128906 -250.32421875 288.79101562 C-255.76398328 257.01004896 -254.86121661 222.71805482 -248.9140625 191.0859375 C-248.75921387 190.24337402 -248.60436523 189.40081055 -248.44482422 188.53271484 C-247.51071493 183.638727 -246.32715531 178.86263626 -244.9140625 174.0859375 C-244.67848633 173.28462402 -244.44291016 172.48331055 -244.20019531 171.65771484 C-233.44576533 135.85234475 -213.06587106 101.93792544 -185.9140625 76.0859375 C-185.1303125 75.3021875 -184.3465625 74.5184375 -183.5390625 73.7109375 C-182.6728125 72.8446875 -181.8065625 71.9784375 -180.9140625 71.0859375 C-180.30304688 70.44011719 -179.69203125 69.79429687 -179.0625 69.12890625 C-166.61249054 56.2035328 -151.29832047 46.17078058 -135.9140625 37.0859375 C-135.26469727 36.70034668 -134.61533203 36.31475586 -133.94628906 35.91748047 C-114.06012512 24.20778916 -92.96732662 15.77496253 -70.9140625 9.0859375 C-70.19766602 8.86711914 -69.48126953 8.64830078 -68.74316406 8.42285156 C-46.4425521 1.78749637 -23.1051236 0.50729812 0 0 Z " fill="#00B041" transform="translate(339.9140625,200.9140625)"/>
<path d="M0 0 C28.64249965 27.29057715 48.40917059 65.40468878 49.76751709 105.48376465 C49.81540196 108.89626016 49.8320238 112.30738299 49.83520508 115.72021484 C49.83853348 116.98469452 49.84186188 118.24917419 49.84529114 119.55197144 C49.85033951 122.22641525 49.85313478 124.90075742 49.85253906 127.57519531 C49.85241903 131.58845673 49.87281987 135.60152975 49.8918457 139.61474609 C49.96796936 174.4373439 47.15487975 207.68135439 29.66723633 238.52490234 C29.29228027 239.18828613 28.91732422 239.85166992 28.53100586 240.53515625 C22.62223415 250.81951983 15.74199934 259.8522963 7.66723633 268.52490234 C7.1799707 269.05067871 6.69270508 269.57645508 6.19067383 270.11816406 C-5.40794938 282.49597285 -18.48576006 292.36149787 -33.33276367 300.52490234 C-34.28771729 301.05277344 -34.28771729 301.05277344 -35.26196289 301.59130859 C-51.39685589 310.3869958 -68.29763666 315.30481239 -86.33276367 318.52490234 C-87.38077148 318.71826172 -88.4287793 318.91162109 -89.50854492 319.11083984 C-121.41990829 322.56600278 -152.22455422 316.90170149 -180.33276367 301.52490234 C-181.41428711 300.93580078 -182.49581055 300.34669922 -183.61010742 299.73974609 C-195.43665025 293.0578255 -205.55987137 284.88117102 -215.33276367 275.52490234 C-216.2737793 274.63673828 -217.21479492 273.74857422 -218.18432617 272.83349609 C-239.89765098 251.82356068 -264.42016536 214.25873838 -265.83276367 183.08740234 C-265.93698212 175.80513822 -260.34578038 170.07901329 -255.77026367 164.96240234 C-251.56979681 160.16667523 -247.49956819 155.30536906 -243.58276367 150.27490234 C-243.13151123 149.69562988 -242.68025879 149.11635742 -242.21533203 148.51953125 C-241.33788004 147.3914016 -240.46099058 146.26283413 -239.5847168 145.13378906 C-237.68266218 142.68945601 -235.76067901 140.26136889 -233.83276367 137.83740234 C-233.22432617 137.07041016 -232.61588867 136.30341797 -231.98901367 135.51318359 C-230.51513861 133.74383829 -228.99244003 132.11879885 -227.33276367 130.52490234 C-225.79688779 134.10261375 -224.79455616 137.54810918 -224.00073242 141.35693359 C-223.76225586 142.47745117 -223.5237793 143.59796875 -223.27807617 144.75244141 C-223.02799805 145.93547852 -222.77791992 147.11851562 -222.52026367 148.33740234 C-220.28531528 158.6154394 -217.86660452 168.61264288 -214.33276367 178.52490234 C-213.90608398 179.73404297 -213.4794043 180.94318359 -213.03979492 182.18896484 C-204.95973497 203.69052494 -192.17419622 222.0578208 -176.33276367 238.52490234 C-175.75397461 239.16685547 -175.17518555 239.80880859 -174.57885742 240.47021484 C-160.55444798 255.58424006 -141.20008478 263.72442957 -121.27026367 267.21240234 C-120.52607178 267.34420898 -119.78187988 267.47601562 -119.01513672 267.61181641 C-94.30874672 271.64839934 -68.99481873 262.63179007 -48.33276367 249.52490234 C-44.00733071 246.38896345 -39.89085066 243.14531281 -36.18432617 239.29052734 C-34.33276367 237.52490234 -34.33276367 237.52490234 -32.33276367 237.52490234 C-32.0775293 236.94611328 -31.82229492 236.36732422 -31.55932617 235.77099609 C-30.20884307 233.29797768 -28.66092286 231.61448589 -26.70776367 229.58740234 C-8.39989182 209.26003649 -2.20065933 183.12218205 -2.12963867 156.46630859 C-2.12681129 155.74464949 -2.12398392 155.02299038 -2.12107086 154.27946281 C-2.10613954 150.45380167 -2.09687412 146.62817759 -2.0925293 142.80249023 C-2.08707949 138.90315012 -2.06310858 135.00416532 -2.03455734 131.10493565 C-2.01568165 128.0615092 -2.01071216 125.01816373 -2.00919342 121.97468376 C-2.00621785 120.54014093 -1.99836859 119.10559767 -1.98500824 117.67111397 C-1.86656925 103.96723777 -3.48971962 90.34449926 -8.02026367 77.33740234 C-8.27517578 76.59530518 -8.53008789 75.85320801 -8.79272461 75.08862305 C-17.98677968 49.50289691 -38.00057451 28.98500267 -62.24707031 17.22314453 C-89.38648623 4.64894777 -119.56951447 3.59562694 -147.64526367 13.71240234 C-169.70887603 22.5694797 -186.25905078 37.21506483 -202.7590332 53.99511719 C-204.20618189 55.40185526 -205.76640654 56.68973717 -207.33276367 57.96240234 C-209.70040324 59.98476114 -211.529572 61.83529768 -213.52026367 64.18505859 C-217.88440178 69.22822817 -222.61352156 73.85775299 -227.37182617 78.52490234 C-231.31958737 82.42693658 -235.06708357 86.42586084 -238.68920898 90.63183594 C-241.12315625 93.43528619 -243.66805791 96.13014951 -246.20776367 98.83740234 C-250.72263505 103.68493362 -254.97307428 108.67799679 -259.12182617 113.84521484 C-261.44211318 116.65743549 -263.86347501 119.34287497 -266.33276367 122.02490234 C-270.37155453 126.41786409 -274.1770797 130.94291144 -277.92651367 135.58349609 C-280.63862224 138.89878466 -283.41389156 142.15353619 -286.20776367 145.39990234 C-295.04390852 155.67292149 -303.78287033 166.01147111 -312.33276367 176.52490234 C-317.64998747 183.03825021 -322.98597196 189.53582211 -328.33276367 196.02490234 C-333.67914294 202.51430551 -339.01861137 209.00905731 -344.33276367 215.52490234 C-344.81567871 216.1159375 -345.29859375 216.70697266 -345.79614258 217.31591797 C-351.58152285 224.39860437 -357.33767753 231.4975775 -362.95776367 238.71240234 C-366.98963492 243.884941 -371.15619857 248.92095776 -375.41479492 253.90795898 C-378.82055029 257.90030189 -382.12115935 261.96284689 -385.37963867 266.07568359 C-388.196446 269.60795998 -391.08320342 273.08186845 -393.96166992 276.56396484 C-395.68929997 278.72136776 -397.35219246 280.88419154 -398.98510742 283.11083984 C-399.65050537 284.00935669 -399.65050537 284.00935669 -400.3293457 284.92602539 C-401.191595 286.09654081 -402.04330048 287.27491393 -402.88305664 288.46166992 C-404.07104492 290.06787109 -404.07104492 290.06787109 -406.33276367 292.52490234 C-407.65276367 292.52490234 -408.97276367 292.52490234 -410.33276367 292.52490234 C-410.40239822 283.1278169 -410.45564308 273.73082084 -410.48820019 264.33353329 C-410.50382916 259.969577 -410.52501659 255.60579777 -410.55908203 251.24194336 C-410.5917746 247.02738781 -410.6096375 242.81300215 -410.6173954 238.59832954 C-410.62292119 236.99363088 -410.6337117 235.38894109 -410.64995384 233.78431511 C-410.67186029 231.52959264 -410.67472518 229.2755644 -410.67333984 227.02075195 C-410.68000168 225.73945908 -410.68666351 224.4581662 -410.69352722 223.13804626 C-410.1369157 217.56343226 -408.04849399 213.04365251 -404.58276367 208.61474609 C-404.06230469 207.9420166 -403.5418457 207.26928711 -403.00561523 206.57617188 C-402.45357422 205.87862793 -401.9015332 205.18108398 -401.33276367 204.46240234 C-400.46989746 203.35421143 -400.46989746 203.35421143 -399.58959961 202.22363281 C-397.84412954 199.98529586 -396.08874407 197.75499745 -394.33276367 195.52490234 C-393.33718556 194.24817146 -392.34234602 192.97086417 -391.34838867 191.69287109 C-386.57091745 185.56314389 -381.71684478 179.50233423 -376.77807617 173.50146484 C-373.78183692 169.85428544 -370.80728345 166.18979815 -367.83276367 162.52490234 C-366.71302308 161.14725666 -365.59323228 159.76965179 -364.47338867 158.39208984 C-362.58391983 156.06720189 -360.69794755 153.73961203 -358.81713867 151.40771484 C-354.5473038 146.13760397 -350.13721429 141.05185165 -345.56713867 136.04052734 C-343.32094801 133.51159939 -341.1974515 130.9144032 -339.08276367 128.27490234 C-334.42617555 122.51543809 -329.40442191 117.14541535 -324.34057617 111.74755859 C-321.48799957 108.70428294 -318.72350157 105.595461 -315.99682617 102.43896484 C-311.71879983 97.51823032 -307.3110154 92.70935621 -302.93432617 87.87646484 C-298.05424684 82.48288499 -298.05424684 82.48288499 -293.39526367 76.89990234 C-292.71463867 76.11615234 -292.03401367 75.33240234 -291.33276367 74.52490234 C-290.67276367 74.52490234 -290.01276367 74.52490234 -289.33276367 74.52490234 C-289.08913086 73.95255859 -288.84549805 73.38021484 -288.59448242 72.79052734 C-287.10759069 70.12056696 -285.35192459 68.38661228 -283.14526367 66.27490234 C-280.3685875 63.55973482 -277.67053106 60.8503423 -275.14526367 57.89990234 C-264.31315043 45.30071003 -252.53829318 33.51804392 -240.81030273 21.76220703 C-238.32878253 19.27090551 -235.85817099 16.76909697 -233.38745117 14.26708984 C-224.49853298 5.31853122 -215.55459534 -3.07136473 -205.33276367 -10.47509766 C-204.08197021 -11.38122803 -204.08197021 -11.38122803 -202.8059082 -12.30566406 C-200.69181767 -13.79685702 -198.5574301 -15.24222612 -196.39526367 -16.66259766 C-195.63713379 -17.16178711 -194.87900391 -17.66097656 -194.09790039 -18.17529297 C-172.16062874 -32.4264797 -148.40750768 -41.55423952 -122.33276367 -44.47509766 C-120.78395508 -44.66072266 -120.78395508 -44.66072266 -119.20385742 -44.85009766 C-74.58714088 -49.31735338 -32.09341285 -29.99322067 0 0 Z " fill="#00B041" transform="translate(1864.332763671875,348.47509765625)"/>
<path d="M0 0 C0.81210938 0.53463867 0.81210938 0.53463867 1.640625 1.08007812 C10.88533158 7.23280514 19.06512183 14.24912989 27 22 C27.56936279 22.54527344 28.13872559 23.09054687 28.7253418 23.65234375 C32.88598312 27.70072014 36.49469276 31.95524709 39.9375 36.625 C40.45473633 37.32447754 40.97197266 38.02395508 41.50488281 38.74462891 C63.72331061 69.12732653 73.18605194 104.17228266 73.13371277 141.58424377 C73.13597833 142.79294457 73.13824388 144.00164536 73.14057809 145.24697345 C73.1457741 148.56615024 73.1465698 151.8852724 73.14538372 155.2044493 C73.14517819 158.79738025 73.15071247 162.39030337 73.15544128 165.98323059 C73.16371205 173.00511583 73.16649439 180.02699267 73.16705366 187.04888237 C73.16752998 192.75366324 73.16959045 198.45844136 73.17275429 204.16322136 C73.18154661 220.34636133 73.18617522 236.5294947 73.18542381 252.71263707 C73.18536388 254.01854261 73.18536388 254.01854261 73.18530273 255.35083008 C73.18526185 256.22249787 73.18522097 257.09416566 73.18517885 257.99224763 C73.1847715 272.15116236 73.19436723 286.31005061 73.2084411 300.46895767 C73.22278671 315.01600358 73.22971247 329.56303655 73.22884732 344.11008972 C73.22851501 352.27406844 73.2312781 360.4380193 73.24202538 368.60199165 C73.25110589 375.54386444 73.25332543 382.48569671 73.24651595 389.42757285 C73.24323995 392.97024745 73.24323305 396.51284418 73.2518692 400.05551147 C73.26112097 403.88991388 73.25498752 407.72420115 73.24723816 411.55860901 C73.25238172 412.68562385 73.25752529 413.81263868 73.26282471 414.97380549 C73.25822592 415.99649655 73.25362712 417.0191876 73.24888897 418.0728693 C73.24921502 419.40105658 73.24921502 419.40105658 73.24954766 420.75607592 C73 423 73 423 71 426 C68.29382925 426.90205692 66.65355261 427.13929615 63.86743164 427.17700195 C63.03969742 427.18983719 62.2119632 427.20267242 61.35914612 427.21589661 C60.02314613 427.22697701 60.02314613 427.22697701 58.66015625 427.23828125 C57.7416539 427.246353 56.82315155 427.25442474 55.8768158 427.26274109 C53.93425376 427.27656741 51.99166757 427.28729606 50.04907227 427.29516602 C47.07717142 427.31241485 44.10637291 427.35631757 41.13476562 427.40039062 C39.24740401 427.41051474 37.36003295 427.41903172 35.47265625 427.42578125 C34.58401382 427.44328934 33.6953714 427.46079742 32.77980042 427.47883606 C31.94891403 427.47591049 31.11802765 427.47298492 30.26196289 427.4699707 C29.16967125 427.47877007 29.16967125 427.47877007 28.05531311 427.48774719 C25.08207219 426.78216618 23.93343865 425.32674464 22 423 C21.50139666 420.60261059 21.50139666 420.60261059 21.50336456 417.87846375 C21.49438377 416.83781486 21.48540298 415.79716597 21.47615004 414.72498226 C21.48663893 413.58299153 21.49712783 412.4410008 21.50793457 411.2644043 C21.50325558 410.05003221 21.49857659 408.83566011 21.49375582 407.58448887 C21.4847015 404.21134032 21.49356138 400.83908697 21.50983071 397.46602154 C21.52298921 393.82830321 21.51304059 390.19064191 21.50572205 386.55291748 C21.49603181 380.24509861 21.50052056 373.93741779 21.5141449 367.62960815 C21.53351725 358.48778401 21.5270628 349.34611488 21.51357108 340.20428669 C21.4919712 325.34386582 21.48527889 310.48348145 21.49072266 295.62304688 C21.49104329 294.73337066 21.49136392 293.84369444 21.49169427 292.92705834 C21.49440387 285.71755521 21.49783086 278.50805245 21.50129986 271.29854965 C21.50429263 265.01999675 21.50700219 258.74144383 21.50927734 252.46289062 C21.50976561 251.13728105 21.50976561 251.13728105 21.51026374 249.78489149 C21.51522231 234.99956391 21.50445796 220.21428689 21.48270559 205.42897511 C21.47006331 196.32333733 21.47136332 187.21790927 21.49115646 178.11228311 C21.50385367 171.85516609 21.50222076 165.59815448 21.48978293 159.34103739 C21.48313068 155.74154517 21.48274436 152.14236215 21.5003643 148.54290009 C21.64908781 116.23078543 16.35480708 87.66125543 -6 63 C-6.43795898 62.51289551 -6.87591797 62.02579102 -7.32714844 61.52392578 C-24.94250709 42.17438044 -49.73939394 29.59954881 -76 28 C-89.59989239 27.40436736 -102.81317934 27.27609343 -116 31 C-116.99257812 31.26683594 -117.98515625 31.53367187 -119.0078125 31.80859375 C-146.67186571 40.10780971 -169.20737022 58.75104303 -183 84 C-194.94342505 107.14114386 -195.1869726 130.63125501 -195.18530273 156.1784668 C-195.18749312 159.92573345 -195.2057175 163.67270687 -195.22460938 167.41992188 C-195.28573302 192.82396325 -192.5430211 214.59244772 -180 237 C-179.44441406 237.99773437 -178.88882812 238.99546875 -178.31640625 240.0234375 C-165.88942922 260.8244686 -143.73878135 277.34192112 -120.53515625 284.1953125 C-84.31083785 292.44084796 -51.33656 288.77324438 -19.32421875 269.37890625 C-18.61910156 268.92386719 -17.91398437 268.46882813 -17.1875 268 C-14 266 -14 266 -11 266 C-10.84748832 272.99230913 -10.74263318 279.98418725 -10.67041016 286.9777832 C-10.64029341 289.3552249 -10.59939068 291.732556 -10.54736328 294.10961914 C-10.47432749 297.53299279 -10.44049113 300.9548939 -10.4140625 304.37890625 C-10.38309479 305.43646622 -10.35212708 306.49402618 -10.32022095 307.58363342 C-10.31742062 313.7659824 -11.02253961 317.24844286 -15.4467926 321.69610596 C-17.61560583 323.51679176 -19.78493487 324.91061154 -22.3125 326.1875 C-23.27285156 326.67347656 -24.23320313 327.15945313 -25.22265625 327.66015625 C-26.13917969 328.10230469 -27.05570313 328.54445313 -28 329 C-28.72058594 329.36996094 -29.44117188 329.73992187 -30.18359375 330.12109375 C-62.00559852 345.5809335 -104.32742597 343.09091408 -137.0546875 332.40625 C-153.99059564 326.53446412 -170.08320598 318.3199678 -184 307 C-184.53898926 306.56252441 -185.07797852 306.12504883 -185.63330078 305.67431641 C-202.03322243 292.29080042 -215.18972161 277.20573053 -226 259 C-226.34659668 258.41669922 -226.69319336 257.83339844 -227.05029297 257.23242188 C-244.3379024 227.64292034 -247.37408229 196.47767044 -247.26074219 162.84399414 C-247.25002404 159.07096253 -247.26070158 155.2984079 -247.2734375 151.52539062 C-247.29651633 113.36859478 -242.15545223 78.94949335 -220 47 C-219.35804687 46.071875 -218.71609375 45.14375 -218.0546875 44.1875 C-209.81758047 32.75889394 -200.05989221 21.76950408 -189 13 C-188.0615625 12.23558594 -187.123125 11.47117187 -186.15625 10.68359375 C-169.01121727 -3.06112261 -149.96370893 -12.60012017 -129 -19 C-127.989375 -19.3196875 -126.97875 -19.639375 -125.9375 -19.96875 C-118.42109928 -22.20577402 -110.77977107 -23.14552724 -103 -24 C-101.97390625 -24.12503906 -100.9478125 -24.25007813 -99.890625 -24.37890625 C-65.73800896 -27.87379831 -28.64101028 -18.93489013 0 0 Z " fill="#00B041" transform="translate(1262,328)"/>
<path d="M0 0 C41.48513517 -0.94284398 81.89321477 6.5872748 118.89648438 25.74951172 C119.79488037 26.21317139 120.69327637 26.67683105 121.61889648 27.15454102 C125.80319508 29.37983983 129.42719668 31.37133897 132.52148438 35.06201172 C131.89487915 35.72620117 131.89487915 35.72620117 131.25561523 36.40380859 C129.32193286 38.45516089 127.39045288 40.50857489 125.45898438 42.56201172 C124.80220703 43.25810547 124.14542969 43.95419922 123.46875 44.67138672 C118.48824269 49.97084277 113.64362559 55.37119651 108.9465332 60.92382812 C107.46650081 62.67177082 105.9650626 64.39900487 104.45898438 66.12451172 C103.96849609 66.71683594 103.47800781 67.30916016 102.97265625 67.91943359 C101.48632812 69.59716797 101.48632812 69.59716797 98.52148438 72.06201172 C93.6478718 72.18630519 89.48795427 69.85214786 85.14648438 67.81201172 C72.68930047 62.17834221 59.94844034 58.60850337 46.52148438 56.06201172 C45.28398438 55.79388672 44.04648437 55.52576172 42.77148438 55.24951172 C-5.92657535 45.30896118 -60.19381498 54.30462856 -101.82958984 81.60351562 C-111.79392186 88.36098351 -120.77694935 95.76267501 -129.47851562 104.06201172 C-130.86732214 105.25772214 -132.2624427 106.44616967 -133.66601562 107.62451172 C-169.27464462 138.75452965 -183.15802741 187.21505127 -186.28227615 232.72413635 C-186.8557979 242.47927945 -186.94119863 252.2503363 -187.04582334 262.0196352 C-187.06898627 264.10276543 -187.09538635 266.18583303 -187.1226635 268.26891327 C-187.74744822 316.27173314 -187.81811434 364.28249839 -187.99592626 412.28849554 C-188.03107139 421.75109361 -188.0680098 431.21368328 -188.10620117 440.67626953 C-188.10892544 441.35138731 -188.11164972 442.02650508 -188.11445654 442.72208098 C-188.12814506 446.11198247 -188.14186354 449.50188384 -188.15559685 452.89178514 C-188.26787294 480.61517668 -188.37496266 508.33858633 -188.47851562 536.06201172 C-191.41144383 537.60259035 -193.3963091 538.31754957 -196.72460938 538.35253906 C-197.96609741 538.37167862 -197.96609741 538.37167862 -199.23266602 538.39120483 C-200.56092407 538.3945433 -200.56092407 538.3945433 -201.91601562 538.39794922 C-202.83310303 538.40460602 -203.75019043 538.41126282 -204.69506836 538.41812134 C-206.6316528 538.42823432 -208.56827199 538.43293878 -210.50488281 538.43261719 C-213.46802982 538.43699622 -216.42969398 538.4733457 -219.39257812 538.51123047 C-221.27538554 538.51709772 -223.15820001 538.52106773 -225.04101562 538.52294922 C-225.926521 538.53732025 -226.81202637 538.55169128 -227.72436523 538.5664978 C-228.55202393 538.56034454 -229.37968262 538.55419128 -230.23242188 538.54785156 C-231.32018921 538.55212662 -231.32018921 538.55212662 -232.42993164 538.55648804 C-235.3942974 537.84096518 -236.54828991 536.38396741 -238.47851562 534.06201172 C-238.97761095 531.66396362 -238.97761095 531.66396362 -238.97629356 528.93882465 C-238.98549116 527.89777586 -238.99468875 526.85672707 -239.00416505 525.78413135 C-238.98873436 524.07042473 -238.98873436 524.07042473 -238.97299194 522.32209778 C-238.97782077 521.10716996 -238.98264961 519.89224215 -238.98762476 518.64049834 C-238.9969598 515.26559777 -238.98830568 511.89160341 -238.9720962 508.5167855 C-238.9589487 504.87692782 -238.96883859 501.237124 -238.9758606 497.59725952 C-238.98595549 490.45987834 -238.97464262 483.32268225 -238.95615999 476.18532405 C-238.93536985 467.85565924 -238.93553321 459.52603427 -238.93650515 451.19634839 C-238.93750731 436.30835026 -238.91917104 421.42043786 -238.89013672 406.5324707 C-238.8620669 392.13141311 -238.84779062 377.73043106 -238.84912109 363.3293457 C-238.84920101 362.44544601 -238.84928092 361.56154631 -238.84936325 360.65086178 C-238.84944396 359.76840621 -238.84952467 358.88595065 -238.84960783 357.97675401 C-238.85099531 341.54382355 -238.83914912 325.11092487 -238.82130139 308.67800478 C-238.8153121 302.89432708 -238.81314734 297.11065532 -238.81223679 291.32697487 C-238.81085833 284.24608665 -238.80173815 277.16525184 -238.78357117 270.08438621 C-238.77446303 266.482344 -238.76819538 262.88036906 -238.77075958 259.27831459 C-238.78264246 237.69176363 -238.63915582 215.83545217 -234.16601562 194.62451172 C-233.94800293 193.5487085 -233.72999023 192.47290527 -233.50537109 191.36450195 C-223.79318474 144.58751238 -201.45806539 103.49333917 -168.47851562 69.06201172 C-167.76953125 68.31177734 -167.06054688 67.56154297 -166.33007812 66.78857422 C-161.10452215 61.39238784 -155.36384757 56.71768824 -149.47851562 52.06201172 C-147.96064453 50.83611328 -147.96064453 50.83611328 -146.41210938 49.58544922 C-139.0505537 43.71055868 -131.36607659 38.7590218 -123.20410156 34.07177734 C-121.68328185 33.1818353 -120.19149599 32.24266964 -118.70507812 31.29638672 C-84.49530713 9.82749818 -39.84949799 0.99702251 0 0 Z " fill="#00B041" transform="translate(853.478515625,216.93798828125)"/>
<path d="M0 0 C0.73979095 0.00215515 1.47958191 0.0043103 2.24179077 0.00653076 C23.28393955 0.10446573 50.34405327 1.83259773 68.25 14.3125 C68.58 14.9725 68.91 15.6325 69.25 16.3125 C68.57301331 18.14749146 68.57301331 18.14749146 67.43579102 20.39501953 C67.01527969 21.23574005 66.59476837 22.07646057 66.16151428 22.94265747 C65.69700363 23.85103363 65.23249298 24.75940979 64.75390625 25.6953125 C64.05260841 27.08941849 64.05260841 27.08941849 63.33714294 28.51168823 C61.83636644 31.49078067 60.32458105 34.46413194 58.8125 37.4375 C57.79549612 39.45145554 56.77921044 41.46577393 55.76367188 43.48046875 C53.26744525 48.42872581 50.76214829 53.37230883 48.25 58.3125 C46.68176673 58.18194022 45.11417224 58.04369719 43.546875 57.90234375 C42.23734863 57.78814087 42.23734863 57.78814087 40.90136719 57.67163086 C38.29646897 57.31879428 35.99006927 56.70310729 33.5 55.875 C22.63020294 52.40795495 11.26772912 51.94822207 -0.0625 52 C-1.95935547 52.00628418 -1.95935547 52.00628418 -3.89453125 52.01269531 C-13.49159535 52.12823374 -22.45386447 52.96046571 -31.75 55.3125 C-32.85472656 55.57933594 -33.95945312 55.84617187 -35.09765625 56.12109375 C-48.55760215 59.80090885 -60.9393805 66.55693436 -71.75 75.3125 C-72.51570312 75.91449219 -73.28140625 76.51648438 -74.0703125 77.13671875 C-95.22011051 94.71242197 -105.50261683 121.68632464 -108.75 148.3125 C-109.00971642 152.65814955 -109.03587803 156.98830263 -109.0284729 161.34089661 C-109.0342653 162.58523694 -109.0400577 163.82957728 -109.04602563 165.1116249 C-109.05997407 168.52558928 -109.06524699 171.93935757 -109.06667423 175.35333598 C-109.07039774 179.0498252 -109.08556756 182.74627059 -109.09928894 186.44273376 C-109.12147366 192.83387089 -109.13653955 199.22499225 -109.14665604 205.61615944 C-109.16129292 214.85650576 -109.18684353 224.09679708 -109.21498732 233.33711096 C-109.26036468 248.33190375 -109.29701676 263.32670451 -109.328125 278.3215332 C-109.35834775 292.88046667 -109.39271504 307.43938072 -109.43261719 321.99829102 C-109.43630951 323.3462769 -109.43630951 323.3462769 -109.44007643 324.72149483 C-109.45245175 329.23016629 -109.46490814 333.73883752 -109.47740483 338.24750865 C-109.58083692 375.60247952 -109.66954303 412.95747309 -109.75 450.3125 C-126.25 450.3125 -142.75 450.3125 -159.75 450.3125 C-160.56563312 447.04996751 -160.87519808 444.83639421 -160.87584114 441.55968571 C-160.87844889 440.60122181 -160.88105664 439.64275791 -160.88374341 438.65524966 C-160.88151268 437.60499887 -160.87928196 436.55474808 -160.87698364 435.47267151 C-160.87854363 434.35448766 -160.88010362 433.23630381 -160.88171089 432.08423561 C-160.88571173 428.32250124 -160.88253452 424.56080696 -160.87939453 420.79907227 C-160.88074917 418.10665264 -160.88249334 415.41423581 -160.88470459 412.72181702 C-160.88915838 406.15266133 -160.88818649 399.58351705 -160.88529195 393.01436091 C-160.88303159 387.66144308 -160.88272816 382.30852845 -160.88381577 376.95561028 C-160.883969 376.19297477 -160.88412223 375.43033927 -160.88428011 374.64459361 C-160.88459986 373.09487995 -160.88492408 371.54516629 -160.8852527 369.99545263 C-160.88810758 355.44359445 -160.88482285 340.89174256 -160.87945233 326.33988541 C-160.8750067 313.9115643 -160.87574158 301.48325257 -160.88037109 289.05493164 C-160.88575563 274.59313504 -160.88780935 260.13134401 -160.88475883 245.66954654 C-160.88444033 244.11795898 -160.88412596 242.56637142 -160.88381577 241.01478386 C-160.88366149 240.25162181 -160.88350721 239.48845976 -160.88334826 238.70217158 C-160.88249299 233.38173873 -160.88392488 228.06130945 -160.88629532 222.74087715 C-160.88913781 216.21750873 -160.88826435 209.69415229 -160.88301457 203.1707852 C-160.88043282 199.85584235 -160.87983771 196.54093525 -160.88266373 193.2259903 C-160.89312143 179.69227316 -160.75669042 166.17583091 -160.31613159 152.64854431 C-160.27896691 151.460928 -160.24180224 150.27331168 -160.20351136 149.049707 C-158.83359418 111.11685983 -143.85293154 75.84457755 -117.75 48.3125 C-116.85667969 47.35472656 -115.96335937 46.39695312 -115.04296875 45.41015625 C-103.34376787 33.11395584 -89.75773719 24.10452347 -74.75 16.3125 C-73.69554687 15.75820313 -72.64109375 15.20390625 -71.5546875 14.6328125 C-62.06506579 9.94867698 -51.95142699 7.02212132 -41.75 4.3125 C-40.73583008 4.04276367 -40.73583008 4.04276367 -39.70117188 3.76757812 C-26.66317185 0.5914966 -13.35979228 -0.07073777 0 0 Z " fill="#00B041" transform="translate(861.75,303.6875)"/>
<path d="M0 0 C16.5 0 33 0 50 0 C50.06611842 33.29214864 50.12151778 66.58423364 50.15319599 99.87642817 C50.15694817 103.80555835 50.16083114 107.73468839 50.16479492 111.66381836 C50.16558185 112.44604788 50.16636878 113.2282774 50.16717956 114.03421084 C50.18023873 126.70524652 50.20389538 139.37624143 50.23145839 152.04725292 C50.25949838 165.04580716 50.27617328 178.04434003 50.28226548 191.04292327 C50.28638485 199.06580681 50.29940241 207.0885751 50.3237494 215.11142317 C50.3414599 221.26006528 50.34336918 227.40861927 50.33932304 233.5572834 C50.34015035 236.08206772 50.34614382 238.60685629 50.35761642 241.13161469 C50.37248652 244.57197015 50.3689733 248.01182784 50.36076355 251.45219421 C50.36950207 252.45705846 50.3782406 253.46192271 50.38724393 254.49723738 C50.34348926 261.25553114 49.24631412 264.60703162 44.546875 269.61328125 C43.62390625 270.50402344 42.7009375 271.39476562 41.75 272.3125 C38.54377946 275.44328006 35.40345867 278.58209356 32.5 282 C28.71093325 286.45284487 24.53175883 290.49790758 20.35546875 294.58203125 C17.89275734 296.9623308 17.89275734 296.9623308 16 300 C15.34 300 14.68 300 14 300 C13.773125 300.55171875 13.54625 301.1034375 13.3125 301.671875 C11.61274074 304.68692417 9.45195184 306.81230369 7 309.25 C6.113125 310.14203125 5.22625 311.0340625 4.3125 311.953125 C2 314 2 314 0 314 C0 210.38 0 106.76 0 0 Z " fill="#00B041" transform="translate(1505,0)"/>
<path d="M0 0 C2.01135254 -0.38095093 2.01135254 -0.38095093 4.50976562 -0.38818359 C5.44413452 -0.39764008 6.37850342 -0.40709656 7.34118652 -0.4168396 C8.35265747 -0.41076691 9.36412842 -0.40469421 10.40625 -0.3984375 C11.44189087 -0.40130768 12.47753174 -0.40417786 13.54455566 -0.40713501 C15.73690334 -0.40917895 17.92926911 -0.40362612 20.12158203 -0.39111328 C23.48641556 -0.37506479 26.8500478 -0.39095136 30.21484375 -0.41015625 C32.3411485 -0.40817388 34.46745249 -0.40433033 36.59375 -0.3984375 C37.60522095 -0.40451019 38.61669189 -0.41058289 39.65881348 -0.4168396 C40.59318237 -0.40738312 41.52755127 -0.39792664 42.49023438 -0.38818359 C43.31471069 -0.38579681 44.13918701 -0.38341003 44.98864746 -0.38095093 C45.6523938 -0.25523712 46.31614014 -0.12952332 47 0 C49.49918878 3.74878317 49.29057424 6.67910873 49.28088379 11.02032471 C49.28682603 11.84691015 49.29276828 12.67349559 49.29889059 13.52512908 C49.3162837 16.3048793 49.31928262 19.08445744 49.32226562 21.86425781 C49.33152069 23.85332102 49.34156984 25.84238066 49.35235596 27.83143616 C49.37862168 33.24271159 49.39149742 38.65393737 49.40037727 44.06526661 C49.40623624 47.44518771 49.4144454 50.8250952 49.42338562 54.20500946 C49.45074095 64.77747926 49.47007127 75.349918 49.4777894 85.92242074 C49.48675081 98.13140492 49.52184477 110.33994127 49.57979059 122.54878926 C49.62301199 131.98243608 49.64319731 141.41595685 49.64587164 150.84970164 C49.64796874 156.48558043 49.65980417 162.12103841 49.69551086 167.75681305 C49.72845163 173.0593104 49.73279437 178.36107019 49.71523285 183.66363335 C49.7136909 185.60868491 49.72239391 187.55377595 49.74214935 189.4987278 C49.76756696 192.15727686 49.75585483 194.81320926 49.73498535 197.47174072 C49.75109816 198.23916698 49.76721097 199.00659323 49.78381205 199.79727483 C49.68679229 205.09164981 48.14745236 207.75929882 44.51508951 211.58405948 C42.59091315 213.38231579 40.63726691 214.90451533 38.41796875 216.32421875 C37.5760498 216.87239258 36.73413086 217.42056641 35.86669922 217.98535156 C34.54049561 218.82791504 34.54049561 218.82791504 33.1875 219.6875 C31.31770809 220.90294682 29.44923845 222.12042995 27.58203125 223.33984375 C26.18331787 224.25032471 26.18331787 224.25032471 24.75634766 225.17919922 C20.56585737 227.94737252 16.46542922 230.83671787 12.375 233.75 C11.67141357 234.25104248 10.96782715 234.75208496 10.24291992 235.26831055 C9.01692665 236.14202262 7.79175923 237.01689619 6.56787109 237.89355469 C2.16593116 241 2.16593116 241 -2 241 C-2.04559727 210.73128016 -2.08100492 180.46256207 -2.10213066 150.19381566 C-2.10463216 146.62261859 -2.10722079 143.05142158 -2.10986328 139.48022461 C-2.1103879 138.76924522 -2.11091252 138.05826584 -2.11145304 137.32574163 C-2.1201624 125.80440761 -2.13593528 114.28309349 -2.15430559 102.76177128 C-2.1729899 90.94521837 -2.18411361 79.1286759 -2.18817699 67.31210881 C-2.19067813 60.6726622 -2.19695478 54.03325267 -2.21146011 47.39381981 C-2.22499086 41.15015183 -2.2292318 34.90654784 -2.22621536 28.66286659 C-2.22676755 26.36622902 -2.23077171 24.06958941 -2.23841095 21.77296448 C-2.24830165 18.64728456 -2.24599042 15.52184903 -2.24050903 12.39616394 C-2.24633472 11.47885677 -2.2521604 10.5615496 -2.25816262 9.61644524 C-2.25418052 8.78142395 -2.25019842 7.94640266 -2.24609566 7.08607769 C-2.2468551 6.36422934 -2.24761454 5.64238099 -2.24839699 4.89865845 C-2 3 -2 3 0 0 Z " fill="#00B041" transform="translate(1593,0)"/>
</svg>
