<?xml version="1.0" encoding="UTF-8"?>
<svg version="1.1" xmlns="http://www.w3.org/2000/svg" width="2367" height="2052">
<path d="M0 0 C5.80080875 5.17028606 5.80080875 5.17028606 6.2734375 9.51171875 C6.79894412 25.94390663 -1.03016272 39.62733943 -7.8203125 54.14453125 C-40.28382443 123.79477025 -58.78592467 200.49236553 -20.62695312 548.57373047 C-9.13329791 580.05063299 4.60237502 610.57977878 19.35546875 640.64794922 C20.40053942 642.77811851 21.44256048 644.90978875 22.48046875 647.04345703 C28.9569462 660.35697213 35.97333429 673.27932091 43.3515625 686.11328125 C44.98348578 688.97108054 46.58962753 691.84179243 48.1875 694.71875 C72.94835483 739.22367863 102.27162204 782.38022117 135.48046875 821.046875 C137.90816136 823.89235657 140.2731706 826.77919283 142.625 829.6875 C146.25068347 834.14191113 150.02429653 838.42948601 153.890625 842.67578125 C155.74626657 844.72042335 157.56756376 846.78784149 159.375 848.875 C165.81996273 856.26422471 172.41870087 863.5185847 179.41796875 870.38671875 C181.05068861 872.05168986 182.5540135 873.78450722 184.0625 875.5625 C191.41160919 884.07549526 199.56312699 892.09927807 208.14453125 899.36328125 C210.36163584 901.31900088 212.42375912 903.3955589 214.5 905.5 C217.83120807 908.87100065 221.25111628 912.0451403 224.84765625 915.12890625 C227.38052162 917.33079829 229.84332522 919.60195826 232.3125 921.875 C236.77873514 925.94859909 241.36921379 929.80827703 246.07421875 933.6015625 C248.72231439 935.77236453 251.31146423 937.99294623 253.89233398 940.2421875 C260.90141622 946.3416791 268.1531581 952.03824574 275.56640625 957.63671875 C279.37390096 960.51283518 283.13676471 963.44219819 286.89111328 966.38720703 C294.48512479 972.34066662 302.16016139 978.12033546 310.06982422 983.64697266 C312.22121712 985.15507023 314.36256906 986.67687939 316.50390625 988.19921875 C342.79295473 1006.82669086 370.14470982 1023.82580161 398 1040 C398.8775293 1040.50966309 399.75505859 1041.01932617 400.65917969 1041.54443359 C475.55971674 1084.85624286 555.29241748 1118.82639055 637 1147 C637.89400513 1147.30852905 638.78801025 1147.61705811 639.70910645 1147.93493652 C683.08188254 1162.87739272 726.96427981 1175.8506248 771.3772583 1187.3215332 C773.90717412 1187.97598723 776.4359114 1188.63480763 778.96435547 1189.29492188 C871.26213635 1213.34473756 965.57303908 1229.2384879 1211.515625 1256.76953125 C1212.33194082 1256.83895746 1213.14825665 1256.90838367 1213.98930931 1256.97991371 C1221.75303731 1257.63941466 1229.51721435 1258.29243135 1237.28345299 1258.92173672 C1239.40569863 1259.09426322 1241.52773637 1259.26914355 1243.64971924 1259.44487 C1246.20388337 1259.6557712 1248.7584272 1259.86215056 1251.31341553 1260.06282043 C1267.1525008 1261.38002971 1280.95254367 1264.70177523 1292 1277 C1297.2899049 1284.74887633 1300.7156471 1292.85344655 1303.609375 1301.73046875 C1304.01377304 1302.93402008 1304.41817108 1304.13757141 1304.83482361 1305.37759399 C1305.92785561 1308.63154695 1307.00449559 1311.89069871 1308.07784653 1315.1511879 C1309.22063012 1318.61329017 1310.37833615 1322.0703988 1311.53442383 1325.52807617 C1313.44098075 1331.23590266 1315.33873395 1336.94658668 1317.23095703 1342.65917969 C1319.78485848 1350.36689778 1322.37062347 1358.06356144 1324.96484375 1365.7578125 C1354.85808271 1454.53628135 1381.37380088 1544.29105137 1406.14248657 1634.62039185 C1408.27502859 1642.38797859 1410.43523613 1650.14740337 1412.61328125 1657.90234375 C1417.55550836 1675.51993594 1422.44703801 1693.135656 1426.6875 1710.9375 C1426.84871338 1711.60434814 1427.00992676 1712.27119629 1427.17602539 1712.95825195 C1431.69939086 1731.78785547 1436.01357339 1753.60398303 1425.6484375 1771.30859375 C1417.71785834 1782.52591027 1407.26213746 1787.53186949 1394 1790 C1388.81342277 1790.47727527 1383.64113068 1790.60099065 1378.4375 1790.6875 C1376.49713867 1790.73874023 1376.49713867 1790.73874023 1374.51757812 1790.79101562 C1370.01207402 1790.90417843 1365.50663375 1790.9552359 1361 1791 C1359.70166733 1791.01580109 1359.70166733 1791.01580109 1358.37710571 1791.03192139 C1335.16792149 1791.28364845 1311.97089985 1790.51516505 1288.77413559 1789.84934235 C1285.26445168 1789.7486211 1281.75474018 1789.64890279 1278.24502563 1789.54925537 C1167.37791459 1786.38821472 1056.57828501 1781.53643203 363.03424072 1692.75140381 C359.96012744 1691.9901259 356.88513577 1691.23247163 353.81005859 1690.47509766 C255.96219857 1666.32399015 159.02258741 1636.02334171 -111.53125 1516.015625 C-116.15391925 1513.45089961 -120.81407725 1510.96184273 -125.48466492 1508.48564148 C-139.14292311 1501.24282582 -152.60388855 1493.73029316 -165.90039062 1485.83740234 C-168.6246276 1484.22251518 -171.35326191 1482.61537648 -174.08433533 1481.01208496 C-187.87739779 1472.91398187 -201.55106945 1464.66031927 -215 1456 C-215.71269043 1455.54318848 -216.42538086 1455.08637695 -217.15966797 1454.61572266 C-247.61330743 1435.09522347 -277.44658574 1414.60264093 -306.07617188 1392.48291016 C-307.84269351 1391.12125376 -309.61493774 1389.76763852 -311.390625 1388.41796875 C-319.45533918 1382.27011398 -327.33382816 1375.91188322 -335.1796875 1369.48828125 C-336.77261865 1368.18590621 -338.3702952 1366.88933968 -339.96875 1365.59375 C-346.20351188 1360.53259036 -352.31661844 1355.34048982 -358.3984375 1350.09765625 C-360.74782976 1348.07255881 -363.1067514 1346.0597527 -365.4765625 1344.05859375 C-373.04295445 1337.65486595 -380.34623984 1331.02212495 -387.55859375 1324.22265625 C-390.26359874 1321.67612185 -393.01847345 1319.19896667 -395.8125 1316.75 C-403.16556858 1310.19185775 -410.00777576 1303.07450268 -416.9387207 1296.07714844 C-421.10402708 1291.87977467 -425.29657366 1287.71001394 -429.4921875 1283.54296875 C-431.07738211 1281.9651599 -432.66208966 1280.38686367 -434.24658203 1278.80834961 C-435.32771017 1277.73224621 -436.40973467 1276.65704256 -437.49267578 1275.58276367 C-443.00159292 1270.1165838 -448.45879921 1264.6529067 -453.50146484 1258.74584961 C-455.87472585 1255.98091161 -458.3824782 1253.34448377 -460.875 1250.6875 C-465.41348524 1245.81414451 -469.69348797 1240.79696023 -473.86328125 1235.6015625 C-475.95882494 1233.05013271 -478.13963155 1230.61673227 -480.375 1228.1875 C-484.43872779 1223.72800046 -488.15883977 1219.06476273 -491.85205078 1214.30004883 C-494.73731486 1210.58378472 -497.69858266 1206.95775867 -500.75 1203.375 C-507.20856965 1195.6799004 -513.14592801 1187.59577677 -519.12255859 1179.52441406 C-520.83508701 1177.22174256 -522.56407169 1174.93289066 -524.30078125 1172.6484375 C-535.50413377 1157.81457176 -545.64550605 1142.25194768 -555.86010742 1126.73034668 C-557.3450718 1124.47618411 -558.8370461 1122.2266835 -560.328125 1119.9765625 C-572.71103158 1101.17996812 -584.02137839 1081.64287069 -595 1062 C-595.48049805 1061.14341797 -595.96099609 1060.28683594 -596.45605469 1059.40429688 C-636.29568066 988.06786919 -666.59766365 911.91316878 -693 785 C-693.19432617 783.72350586 -693.38865234 782.44701172 -693.58886719 781.13183594 C-694.9299218 772.10955755 -696.04874928 763.07078907 -697 754 C-697.0751886 753.28956543 -697.1503772 752.57913086 -697.22784424 751.84716797 C-702.04704372 705.62998196 -702.14437056 658.19270309 -697 612 C-696.87271515 610.85123383 -696.87271515 610.85123383 -696.74285889 609.67926025 C-688.69907129 538.05089114 -669.47998634 468.33721638 -639 403 C-638.44699219 401.81035645 -637.89398437 400.62071289 -637.32421875 399.39501953 C-630.04929169 383.79523447 -622.28854527 368.55759299 -613.578125 353.70019531 C-612.03369076 351.05764539 -610.5147145 348.40185962 -609 345.7421875 C-587.85143795 308.92021003 -562.63254769 273.44516675 -533.93359375 242.11328125 C-532.13112279 240.14330794 -530.37241601 238.14377944 -528.625 236.125 C-519.58088624 225.77757409 -510.09491179 215.93425482 -500.36499023 206.23461914 C-498.30139939 204.17642843 -496.24326325 202.1128902 -494.18554688 200.04882812 C-492.8492791 198.71322066 -491.51270143 197.37792316 -490.17578125 196.04296875 C-489.57349197 195.43865524 -488.9712027 194.83434174 -488.35066223 194.2117157 C-484.60920106 190.49043074 -480.74499278 186.95947957 -476.74987793 183.51176453 C-474.52515241 181.58976696 -472.35730727 179.60860665 -470.1875 177.625 C-464.93862774 172.89384655 -459.49437924 168.44123215 -454 164 C-452.76879913 162.98917233 -451.53837382 161.97739951 -450.30859375 160.96484375 C-417.53629632 134.04111594 -382.07830223 110.55630013 -345 90 C-343.43233887 89.12988281 -343.43233887 89.12988281 -341.83300781 88.2421875 C-305.06329261 67.94055326 -266.75793603 51.53120656 -227 38 C-225.90397461 37.62423828 -224.80794922 37.24847656 -223.67871094 36.86132812 C-179.30450732 21.76022787 -133.33723159 11.74948259 -87 5 C-86.00087585 4.8543158 -86.00087585 4.8543158 -84.98156738 4.70568848 C-68.05784457 2.25507503 -51.07657521 0.43174154 -34.0625 -1.25 C-32.72016296 -1.38368988 -32.72016296 -1.38368988 -31.35070801 -1.52008057 C-28.78763599 -1.77347962 -26.22405555 -2.02075242 -23.66015625 -2.265625 C-22.90309891 -2.3404007 -22.14604156 -2.41517639 -21.36604309 -2.49221802 C-7.00481376 -3.83282262 -7.00481376 -3.83282262 0 0 Z " fill="#0082CB" transform="translate(701,261)"/>
<path d="M0 0 C1.22783203 0.14453613 2.45566406 0.28907227 3.72070312 0.43798828 C94.61760891 11.54788351 181.56743987 46.05589276 325 137 C325.76747559 137.5563916 326.53495117 138.1127832 327.32568359 138.68603516 C337.72180855 146.24401175 347.98130759 153.94798078 358 162 C358.6403418 162.5141748 359.28068359 163.02834961 359.94042969 163.55810547 C367.51529312 169.65204466 375.0267922 175.81350602 382.42260742 182.1237793 C385.69517927 184.91295496 389.01704384 187.62712416 392.375 190.3125 C397.64826087 194.597507 402.59381939 199.19304013 407.52294922 203.86450195 C411.29229799 207.43409261 415.13713433 210.89096665 419.05444336 214.29736328 C431.61017976 225.28540515 443.32386208 237.21831866 455.125 249 C456.2200032 250.09112091 456.2200032 250.09112091 457.33712769 251.20428467 C459.45950366 253.3207328 461.5780332 255.44095437 463.6953125 257.5625 C464.32712936 258.19233795 464.95894623 258.8221759 465.60990906 259.47109985 C469.36219384 263.2426268 472.92464181 267.12712567 476.38375854 271.16967773 C478.02194809 273.02485524 479.73309006 274.76769833 481.5 276.5 C484.51413582 279.46735323 487.29917333 282.57345292 490.05859375 285.77734375 C492.28804061 288.32976883 494.58001382 290.81887514 496.875 293.3125 C501.02245258 297.85524685 504.93232695 302.54119962 508.79296875 307.328125 C510.91623338 309.8985905 513.11811849 312.35919363 515.375 314.8125 C519.41345813 319.24358601 523.10238396 323.87880988 526.77075195 328.61425781 C529.93631853 332.6868651 533.20393416 336.64802543 536.5625 340.5625 C541.40778604 346.23132336 545.99568181 352.07156824 550.49511719 358.01806641 C552.23057784 360.30367147 553.97825436 362.5796766 555.7265625 364.85546875 C563.81681165 375.40238634 571.73474935 386.04966012 579.46289062 396.86425781 C580.93395779 398.90823742 582.42364212 400.93681483 583.921875 402.9609375 C593.74440548 416.2836908 602.82189769 430.10270933 611.95643616 443.90071106 C615.49599579 449.24615974 619.060223 454.57450548 622.63134766 459.89892578 C679.53192212 544.8386763 729.40927626 636.46105485 771.46435547 729.61669922 C773.18674931 733.41144228 774.93757992 737.19237376 776.69140625 740.97265625 C786.87503965 762.96487818 796.50939759 785.1769091 805.94335938 807.5 C806.95453651 809.89243389 807.96737836 812.28415705 808.98046875 814.67578125 C831.43796946 867.74700189 851.84082914 921.65653754 871 976 C871.47829254 977.35463348 871.47829254 977.35463348 871.96624756 978.7366333 C905.39934008 1073.46407019 935.71405928 1169.84065976 972.125 1317.875 C972.40859375 1319.1228125 972.6921875 1320.370625 972.984375 1321.65625 C977.18288039 1340.4435014 978.9649268 1360.1320646 968.8515625 1377.39453125 C960.19602144 1389.57437489 948.54312667 1393.86561898 934.35531616 1396.34881592 C927.55052818 1397.4351826 920.70713074 1397.68401005 913.83203125 1397.9140625 C912.30356778 1397.97371583 910.77514117 1398.03431978 909.24674988 1398.09579468 C906.04761743 1398.22209064 902.84833425 1398.34078837 899.64868164 1398.453125 C895.70073487 1398.59177307 891.75343731 1398.74325001 887.80617046 1398.8999548 C877.20574126 1399.31999399 866.60378448 1399.67636146 856 1400 C854.76439016 1400.03812239 854.76439016 1400.03812239 853.50381851 1400.07701492 C817.14546622 1401.18667596 780.78058597 1401.20161906 744.40908289 1401.18822432 C742.04452537 1401.18749445 739.67996824 1401.18724798 737.31541061 1401.1871376 C689.19332475 1401.18371607 641.10242491 1400.98063416 593.01124573 1399.07885742 C590.98473257 1398.99940139 588.95814584 1398.92218936 586.93151855 1398.84570312 C489.78515493 1395.17430164 392.62564596 1386.64929517 -111 1259 C-112.16321777 1258.48904785 -113.32643555 1257.9780957 -114.52490234 1257.45166016 C-132.25157894 1249.65594852 -149.76269545 1241.45843103 -167.13946533 1232.91400146 C-169.03188896 1231.98433431 -170.92572537 1231.05759637 -172.81982422 1230.13134766 C-188.66256431 1222.37603842 -204.21154116 1214.27141585 -219.48779297 1205.4375 C-222.52356684 1203.7004119 -225.59089611 1202.02695776 -228.66455078 1200.3581543 C-247.93218683 1189.85709555 -266.31518214 1177.91060486 -284.5625 1165.75 C-285.30651062 1165.25465759 -286.05052124 1164.75931519 -286.81707764 1164.2489624 C-301.3336807 1154.56975555 -315.72163473 1144.69305736 -329.5625 1134.0625 C-330.43890137 1133.39210693 -331.31530273 1132.72171387 -332.21826172 1132.03100586 C-339.6940618 1126.287138 -347.03506036 1120.38873195 -354.30859375 1114.39160156 C-356.73677601 1112.39381881 -359.18286415 1110.41818576 -361.625 1108.4375 C-371.80318415 1100.09047342 -381.70828414 1091.47007645 -391.34838867 1082.50805664 C-392.52845975 1081.43055493 -393.72307814 1080.36889835 -394.92700195 1079.31811523 C-403.36915321 1071.89903438 -411.24422387 1063.90638441 -419.17797852 1055.95239258 C-421.68849074 1053.43650714 -424.20432064 1050.92602814 -426.72070312 1048.41601562 C-428.33886249 1046.79719563 -429.95671172 1045.17806555 -431.57421875 1043.55859375 C-432.31604904 1042.81878769 -433.05787933 1042.07898163 -433.82218933 1041.3167572 C-437.8773919 1037.24349908 -441.76810909 1033.08140429 -445.51548767 1028.72262573 C-447.58035384 1026.32655833 -449.72882937 1024.01071164 -451.875 1021.6875 C-456.32186477 1016.80663191 -460.52428901 1011.77624476 -464.66748047 1006.63720703 C-466.18221604 1004.77611932 -467.71671785 1002.93242794 -469.25390625 1001.08984375 C-476.61378276 992.25573965 -483.72248163 983.29133672 -490.52001953 974.01708984 C-491.98349536 972.02249445 -493.45827129 970.03662299 -494.93359375 968.05078125 C-516.71126495 938.52525092 -536.4071083 907.3237919 -553.49121094 874.86181641 C-554.97337531 872.05050075 -556.47334413 869.2493217 -557.9765625 866.44921875 C-595.3911331 796.32774863 -621.73606517 719.31801824 -632.1875 640.4375 C-632.4198938 638.70318726 -632.4198938 638.70318726 -632.65698242 636.93383789 C-635.46054345 614.66254441 -636.37884641 592.43308441 -636.3125 570 C-636.31067719 568.71184387 -636.30885437 567.42368774 -636.30697632 566.09649658 C-636.25900171 545.89246682 -635.63675095 526.04187963 -633 506 C-632.91514343 505.33768372 -632.83028687 504.67536743 -632.74285889 503.99298096 C-624.47598576 439.4914088 -605.08896577 376.50206741 -577.30273438 317.765625 C-576.03311076 315.07029212 -574.78741833 312.36506925 -573.546875 309.65625 C-567.8317924 297.27741337 -561.37464218 285.41850397 -554.52685547 273.63183594 C-553.15301927 271.26375882 -551.79454648 268.88775053 -550.44140625 266.5078125 C-535.94970293 241.20928727 -518.69209496 217.35123263 -500 195 C-499.55962402 194.47325684 -499.11924805 193.94651367 -498.66552734 193.40380859 C-487.57853105 180.18810901 -475.79736484 167.71938832 -463.625 155.5 C-462.79291016 154.6632373 -461.96082031 153.82647461 -461.10351562 152.96435547 C-456.22897169 148.1024955 -451.22611033 143.47913369 -446 139 C-444.84333449 137.97850408 -443.68834338 136.95510861 -442.53515625 135.9296875 C-412.30455497 109.25028434 -378.39639275 87.15621409 -343 68 C-341.88987549 67.39389893 -340.77975098 66.78779785 -339.63598633 66.16333008 C-331.01221625 61.4833199 -322.26956591 57.19424355 -313.3125 53.1875 C-312.64914642 52.8897467 -311.98579285 52.59199341 -311.30233765 52.28521729 C-249.41474554 24.5684912 -183.39605473 6.50346346 -116 -1 C-114.96198242 -1.12004395 -113.92396484 -1.24008789 -112.85449219 -1.36376953 C-75.72236517 -5.47933894 -37.06650961 -4.38305395 0 0 Z " fill="#91C83E" transform="translate(1391,4)"/>
</svg>
