<?xml version="1.0" encoding="UTF-8"?>
<svg version="1.1" xmlns="http://www.w3.org/2000/svg" width="600" height="600">
<path d="M0 0 C198 0 396 0 600 0 C600 198 600 396 600 600 C402 600 204 600 0 600 C0 402 0 204 0 0 Z " fill="#FEFEFE" transform="translate(0,0)"/>
<path d="M0 0 C5.25761911 5.93129733 4.89774221 11.52081361 4.84838867 19.12963867 C4.83985111 21.14279569 4.86871301 23.15313652 4.90039062 25.16601562 C4.89974609 26.43896484 4.89910156 27.71191406 4.8984375 29.0234375 C4.90029053 30.18560791 4.90214355 31.34777832 4.90405273 32.54516602 C4.26819549 36.39403619 3.55824329 37.30075665 0.40234375 39.58203125 C-2.68362957 40.17960335 -5.73105715 40.11973283 -8.86610413 40.08755493 C-9.81478928 40.09364505 -10.76347443 40.09973517 -11.74090761 40.10600984 C-14.92786091 40.1216577 -18.11406783 40.10880213 -21.30102539 40.09619141 C-23.58243789 40.10164985 -25.86384672 40.10888987 -28.14524841 40.11778259 C-33.06167388 40.13314156 -37.97789059 40.13591268 -42.89433479 40.12901688 C-50.66250434 40.11825581 -58.4304546 40.13558165 -66.19859314 40.15682983 C-77.08430819 40.18367132 -87.96996561 40.19801729 -98.85571289 40.20117188 C-99.54648658 40.20137586 -100.23726027 40.20157985 -100.9489665 40.20179002 C-101.64061428 40.20199339 -102.33226207 40.20219676 -103.04486889 40.20240629 C-112.85324252 40.20532699 -122.6616032 40.21213133 -132.4699707 40.22363281 C-133.16020657 40.22443811 -133.85044244 40.2252434 -134.56159455 40.2260731 C-146.06188721 40.23981836 -157.56215495 40.26161489 -169.06242651 40.28750265 C-176.79060296 40.3040408 -184.51868534 40.30940959 -192.24687779 40.30591226 C-197.04672458 40.3054764 -201.8465356 40.31302203 -206.64637184 40.32258797 C-208.87850551 40.32527936 -211.11064635 40.32450454 -213.34277725 40.3200779 C-216.38067432 40.31446814 -219.41831042 40.3209482 -222.45619202 40.33047485 C-223.34742502 40.32581164 -224.23865802 40.32114843 -225.15689808 40.3163439 C-230.17485123 40.33263727 -230.17485123 40.33263727 -234.59765625 42.58203125 C-235.48194172 46.26655406 -235.40499171 50.06026797 -233.61328125 53.4375 C-230.79407517 56.9615076 -227.93705583 59.31626465 -223.41548252 59.82993627 C-222.2200075 59.8284751 -222.2200075 59.8284751 -221.00038147 59.82698441 C-220.07671783 59.8307497 -219.1530542 59.834515 -218.20140076 59.8383944 C-216.68450401 59.82935322 -216.68450401 59.82935322 -215.13696289 59.82012939 C-214.05987061 59.8216884 -212.98277832 59.82324741 -211.87304688 59.82485366 C-208.25123688 59.82781734 -204.62960515 59.81661967 -201.0078125 59.80566406 C-198.41588849 59.80514001 -195.82396413 59.80557503 -193.23204041 59.80690002 C-187.64287864 59.80871177 -182.05375443 59.80391389 -176.46459961 59.79529572 C-167.62285913 59.78224608 -158.78119187 59.78981911 -149.93945312 59.80072021 C-146.91287243 59.80419849 -143.88629159 59.80754355 -140.85971069 59.81084824 C-139.72508268 59.81209524 -139.72508268 59.81209524 -138.5675329 59.81336744 C-129.95664464 59.8225517 -121.34575574 59.82750112 -112.73486328 59.83056641 C-111.9477601 59.83085216 -111.16065691 59.8311379 -110.34970212 59.83143231 C-97.60928716 59.83553214 -84.86891912 59.82432347 -72.12851465 59.8091909 C-59.03821242 59.79420051 -45.94805163 59.80224138 -32.85776997 59.829808 C-24.79000484 59.84594448 -16.72268615 59.84333986 -8.65494806 59.81633487 C-2.46253655 59.7973807 3.72945608 59.80977703 9.92184258 59.83357048 C12.45497271 59.83833374 14.98814642 59.83290301 17.52122688 59.81633949 C42.27364964 59.66520839 42.27364964 59.66520839 51.40234375 66.58203125 C52.08466064 67.09436436 52.76697754 67.60669746 53.4699707 68.13455582 C59.45582482 73.36845362 63.18975596 80.65734044 63.8630085 88.58581543 C64.10776801 93.42217739 64.06769741 98.25677373 64.03344727 103.09765625 C64.03859333 104.95333539 64.04587977 106.80900963 64.05513 108.66467285 C64.07356466 113.67718287 64.06075567 118.6891575 64.04103971 123.7016449 C64.02458614 128.96288618 64.03347541 134.22409533 64.03855896 139.48535156 C64.04307243 148.31844579 64.02725635 157.15132774 63.99926758 165.984375 C63.96721917 176.17679622 63.96723394 186.36883472 63.98448235 196.56128311 C64.0003809 206.39161192 63.99359246 216.22180126 63.97654533 226.05212402 C63.96969719 230.22411848 63.97068425 234.39600038 63.97809029 238.56799316 C63.98578713 243.4864306 63.97351652 248.40443579 63.94624138 253.32279968 C63.939392 255.12101459 63.93922228 256.91927013 63.94645691 258.71748352 C63.9917099 271.43705975 63.07198776 282.33598089 54.6015625 292.5703125 C48.32839506 298.30864506 40.02072806 301.69835176 31.55239773 301.71625233 C30.08237573 301.72293909 30.08237573 301.72293909 28.58265632 301.72976094 C27.50845454 301.72957658 26.43425275 301.72939222 25.32749939 301.72920227 C24.1843647 301.73287896 23.04123001 301.73655565 21.86345488 301.74034375 C18.68988029 301.74946106 15.5163361 301.7540782 12.34275067 301.75673306 C8.91993924 301.76064049 5.49714272 301.77021859 2.07434082 301.77894592 C-6.19255959 301.79869896 -14.4594612 301.80877552 -22.72637931 301.81767371 C-26.62158214 301.82205891 -30.51678363 301.82742516 -34.4119854 301.83266258 C-47.36458714 301.84967445 -60.31718804 301.86416762 -73.26979923 301.87141132 C-76.63030562 301.87332115 -79.990812 301.87524149 -83.35131836 301.87719727 C-84.60414135 301.87792288 -84.60414135 301.87792288 -85.8822739 301.87866315 C-99.4058374 301.8869597 -112.92931233 301.91229047 -126.45283718 301.94477794 C-140.34426114 301.97787649 -154.23564015 301.99586265 -168.12710375 301.99905556 C-175.92373582 302.00121818 -183.72023877 302.00993026 -191.51683235 302.03551674 C-198.15823294 302.05726206 -204.79947307 302.06525543 -211.44090522 302.05554996 C-214.82671608 302.05101604 -218.21192863 302.05503536 -221.59773827 302.0723114 C-225.27674502 302.09003 -228.95491864 302.08292299 -232.63392639 302.06977844 C-233.69251313 302.08074769 -234.75109986 302.09171693 -235.84176499 302.10301858 C-245.08123982 302.02359815 -254.15503407 299.94687082 -261.03515625 293.4140625 C-268.44526264 284.72571276 -270.90432504 276.10609296 -270.86508179 264.95523071 C-270.8696129 264.00413213 -270.87414401 263.05303355 -270.87881243 262.0731138 C-270.89144184 258.89586068 -270.889837 255.7187793 -270.88818359 252.54150391 C-270.89416969 250.25953451 -270.90097542 247.97756713 -270.90853882 245.69560242 C-270.9261963 239.50345051 -270.93089406 233.3113539 -270.93217039 227.11917925 C-270.93359253 223.24942354 -270.93786328 219.37968187 -270.94316483 215.50992966 C-270.96070897 202.70322209 -270.97000519 189.89655918 -270.96850388 177.08984132 C-270.96842397 176.40019369 -270.96834405 175.71054605 -270.96826172 175 C-270.96817996 174.30950606 -270.9680982 173.61901213 -270.96801396 172.90759413 C-270.96720105 161.71727084 -270.98634252 150.52708215 -271.01453845 139.33679779 C-271.04329184 127.83412168 -271.05671146 116.33152857 -271.0553509 104.82881391 C-271.05484116 98.37591293 -271.06053145 91.92316437 -271.081707 85.47029495 C-271.10107974 79.40126184 -271.10122015 73.33252671 -271.08667374 67.26348305 C-271.08458347 65.03869885 -271.08929945 62.81389605 -271.10139465 60.58914375 C-271.11686161 57.54667977 -271.10752887 54.50524143 -271.09213257 51.46279907 C-271.10241969 50.58719853 -271.11270682 49.71159799 -271.12330568 48.8094641 C-271.02673145 40.14455314 -267.57684016 31.92635617 -261.59765625 25.58203125 C-251.42426404 17.15378234 -240.21758562 15.96713083 -227.51171875 14.93359375 C-225.91299875 14.79542092 -224.31436237 14.65627774 -222.71580505 14.51623535 C-218.43745774 14.14414468 -214.1580819 13.78549606 -209.87837601 13.42942047 C-205.43311873 13.05717588 -200.98896472 12.67219892 -196.54467773 12.28857422 C-187.59476462 11.5181686 -178.64369809 10.76198702 -169.69219971 10.01025391 C-164.87256764 9.60547368 -160.05317847 9.19787267 -155.23388672 8.7890625 C-154.49751606 8.72661158 -153.7611454 8.66416065 -153.00246048 8.59981728 C-150.14794553 8.35768861 -147.29343851 8.11546655 -144.43893433 7.87321091 C-137.38433921 7.27462535 -130.32955801 6.6785467 -123.27392578 6.09228516 C-122.12561783 5.99637085 -120.97730988 5.90045654 -119.79420471 5.80163574 C-117.69026352 5.6260346 -115.58621754 5.45168166 -113.48204041 5.27893066 C-109.37819183 4.93550232 -105.28978865 4.56526819 -101.20507812 4.03833008 C-98.43532744 3.68798736 -95.75373882 3.43106593 -92.96875 3.3359375 C-92.15986328 3.30306641 -91.35097656 3.27019531 -90.51757812 3.23632812 C-88.8900783 3.1761452 -87.26247231 3.11875416 -85.63476562 3.06445312 C-80.65977544 2.85667182 -75.79514588 2.37154452 -70.86328125 1.6796875 C-61.56960668 0.3880044 -52.24435151 -0.45278271 -42.89916992 -1.27783203 C-39.90418044 -1.54349883 -36.9101266 -1.81837885 -33.91601562 -2.09375 C-5.7822862 -4.63465687 -5.7822862 -4.63465687 0 0 Z " fill="#EE4D2D" transform="translate(403.59765625,33.41796875)"/>
<path d="M0 0 C1.57379425 -0.0237545 1.57379425 -0.0237545 3.17938232 -0.04798889 C4.31160217 -0.04302902 5.44382202 -0.03806915 6.61035156 -0.03295898 C8.37611542 -0.04225685 8.37611542 -0.04225685 10.17755127 -0.05174255 C12.67581354 -0.05885173 15.17412307 -0.05564773 17.67236328 -0.04296875 C21.44558505 -0.02925407 25.21625139 -0.06297983 28.98925781 -0.10131836 C46.33104246 -0.15688833 61.25060091 1.07592728 75.75097656 11.53344727 C76.38261719 11.97172852 77.01425781 12.41000977 77.66503906 12.86157227 C87.08556364 20.08259111 92.39224937 32.13660654 94.75097656 43.53344727 C95.94948674 56.22586654 92.7149495 69.83049249 84.84863281 79.99047852 C76.04926149 90.30538304 66.03903788 96.64269872 52.75097656 99.53344727 C51.28573618 99.61681833 49.81721337 99.65128914 48.34960938 99.64697266 C47.05872406 99.64685936 47.05872406 99.64685936 45.74176025 99.64674377 C44.82183289 99.64158249 43.90190552 99.6364212 42.95410156 99.63110352 C41.53094635 99.62898109 41.53094635 99.62898109 40.07904053 99.6268158 C37.05298694 99.62122468 34.02700773 99.60867379 31.00097656 99.59594727 C28.94759222 99.59093112 26.89420671 99.58636841 24.84082031 99.58227539 C19.8108438 99.57125816 14.78092279 99.5539996 9.75097656 99.53344727 C9.75985901 100.19077347 9.76874146 100.84809967 9.77789307 101.52534485 C9.8662489 108.35437339 9.92666201 115.18324013 9.97070312 122.01269531 C9.99084353 124.56289258 10.01815753 127.11304355 10.05273438 129.66308594 C10.10114395 133.32441624 10.1239213 136.98513709 10.14160156 140.64672852 C10.17256927 142.36246819 10.17256927 142.36246819 10.2041626 144.11286926 C10.20446472 145.17374252 10.20476685 146.23461578 10.20507812 147.32763672 C10.21396057 148.26251419 10.22284302 149.19739166 10.23199463 150.16059875 C9.75097656 152.53344727 9.75097656 152.53344727 7.88861084 154.33171082 C5.20329385 155.84134384 3.32064144 155.96673069 0.25097656 155.97094727 C-0.68746094 155.9902832 -1.62589844 156.00961914 -2.59277344 156.02954102 C-6.05778254 155.38239961 -7.06964412 154.27403158 -9.24902344 151.53344727 C-9.752388 148.75667572 -9.752388 148.75667572 -9.75695801 145.49865723 C-9.7682373 144.26205856 -9.7795166 143.0254599 -9.7911377 141.75138855 C-9.78336073 140.38381724 -9.77516807 139.01624824 -9.76660156 137.64868164 C-9.77202258 136.20631707 -9.77914512 134.76395804 -9.7878418 133.3216095 C-9.8060809 129.40627537 -9.79900544 125.49136272 -9.78632545 121.57602119 C-9.77620072 117.47925808 -9.78558966 113.38253113 -9.79187012 109.2857666 C-9.79914808 102.40585854 -9.789555 95.52612222 -9.77050781 88.64624023 C-9.74873868 80.69130297 -9.75578995 72.73677576 -9.77781343 64.78184843 C-9.79596327 57.95285134 -9.79852783 51.12397773 -9.78805876 44.29496431 C-9.78182149 40.21587686 -9.78099447 36.13698218 -9.79420471 32.0579071 C-9.80575666 28.22298162 -9.79775011 24.38858499 -9.77462769 20.55371666 C-9.769337 19.14602728 -9.77086061 17.73829342 -9.77967834 16.33062172 C-9.79060123 14.40984304 -9.77447742 12.48896714 -9.75695801 10.5682373 C-9.75544991 9.4930912 -9.7539418 8.4179451 -9.752388 7.31021881 C-8.7386106 1.71779446 -5.33457036 0.03594496 0 0 Z " fill="#EE5031" transform="translate(144.2490234375,369.466552734375)"/>
<path d="M0 0 C1.29067383 -0.0309375 1.29067383 -0.0309375 2.60742188 -0.0625 C14.09538397 -0.13175674 25.74472858 4.53900573 34.3125 12.25 C34.34988281 11.63511719 34.38726562 11.02023437 34.42578125 10.38671875 C34.49152344 9.57847656 34.55726563 8.77023437 34.625 7.9375 C34.68300781 7.13699219 34.74101562 6.33648437 34.80078125 5.51171875 C35.3125 3.25 35.3125 3.25 38.3125 0.25 C42.9325 0.25 47.5525 0.25 52.3125 0.25 C52.3125 31.6 52.3125 62.95 52.3125 95.25 C47.6925 95.25 43.0725 95.25 38.3125 95.25 C35.1513984 92.0888984 34.92437259 91.6938418 34.625 87.5625 C34.55925781 86.75425781 34.49351562 85.94601562 34.42578125 85.11328125 C34.36970703 84.19095703 34.36970703 84.19095703 34.3125 83.25 C33.77625 83.69730469 33.24 84.14460938 32.6875 84.60546875 C20.77315227 93.79597711 7.09760505 96.85083875 -7.6875 95.25 C-16.69534028 93.56165066 -23.67072867 90.08321954 -30.6875 84.25 C-31.73357422 83.42435547 -31.73357422 83.42435547 -32.80078125 82.58203125 C-40.60358707 75.71859235 -47.08478729 63.82179128 -47.82055664 53.35766602 C-48.63265095 36.78981151 -45.20856035 25.80147813 -33.8828125 13.25 C-24.46200836 4.19308959 -12.77595523 0.07487739 0 0 Z " fill="#EE5031" transform="translate(286.6875,424.75)"/>
<path d="M0 0 C2.48090495 1.55056559 4.7059343 3.17517501 7 5 C6.58221009 10.7097955 4.42453429 13.60957142 1 18 C-3.85316825 17.37439628 -7.68996823 15.2901651 -12 13.125 C-25.31000386 6.70203343 -39.67051283 3.29499404 -54.375 7.125 C-62.92400002 10.17821429 -69.33654126 15.18870661 -74 23 C-75.9848849 28.95465471 -76.01898824 35.64553901 -73.3125 41.375 C-65.5567107 54.62447339 -49.72295396 59.61885601 -36.05078125 64.50537109 C-18.83070825 70.67867021 1.26751279 78.39166005 11 95 C11.40863281 95.60328125 11.81726563 96.2065625 12.23828125 96.828125 C17.13729456 105.38035442 16.26500613 117.42697759 14.15234375 126.734375 C9.49969187 139.91951728 1.50817988 149.16860779 -10.8828125 155.46484375 C-30.15890184 164.14663334 -51.72092884 162.58029626 -71.3046875 155.8671875 C-81.51881607 151.86112668 -90.96184423 146.4900997 -99 139 C-98.65986985 133.55791766 -95.29703472 130.06331802 -92 126 C-87.39053547 126.52263445 -84.33077589 128.59440384 -80.625 131.1875 C-67.36423129 140.06754226 -52.13628022 145.57333529 -36 144 C-27.85119073 142.38191505 -20.25666658 140.10754712 -13 136 C-12.31292969 135.71382812 -11.62585938 135.42765625 -10.91796875 135.1328125 C-8.52200264 133.71767976 -8.05100646 132.54380768 -7 130 C-6.64679688 129.32582031 -6.29359375 128.65164063 -5.9296875 127.95703125 C-1.88657661 119.7360391 -2.13157418 112.60527745 -5 104 C-7.0115195 101.19195735 -7.0115195 101.19195735 -9 99 C-9 98.34 -9 97.68 -9 97 C-9.57492187 96.72800781 -10.14984375 96.45601563 -10.7421875 96.17578125 C-13.01373742 94.99284608 -15.02730803 93.65433627 -17.125 92.1875 C-24.89501461 86.98639902 -32.55899894 83.71405547 -41.515625 81.0859375 C-47.83713174 79.11578181 -53.93084052 76.63301366 -60 74 C-60.61584961 73.73316406 -61.23169922 73.46632813 -61.86621094 73.19140625 C-75.2224092 67.28045773 -85.91013085 59.013137 -91.6328125 45.27734375 C-93.22803629 40.86442182 -93.50143093 36.78796193 -93.4375 32.125 C-93.42847656 31.33416016 -93.41945312 30.54332031 -93.41015625 29.72851562 C-93.08221509 18.6422824 -88.712085 10.91153547 -81 3 C-74.98107251 -2.14362594 -68.50141264 -5.54604951 -61 -8 C-59.96746094 -8.35578125 -58.93492187 -8.7115625 -57.87109375 -9.078125 C-38.80303749 -13.61905464 -17.17978196 -8.83453977 0 0 Z " fill="#FEFBFA" transform="translate(342,140)"/>
<path d="M0 0 C3.8193385 0.17618872 6.7540187 0.41419137 9.8125 2.83276367 C13.47355692 7.21825432 15.92232162 12.33662736 18.43408203 17.43725586 C21.04634139 22.53881437 24.14159129 27.34587793 27.16748047 32.20922852 C28.34731712 34.14374991 29.52448394 36.0799026 30.69873047 38.01782227 C31.24916016 38.92516113 31.79958984 39.8325 32.36669922 40.76733398 C33.75631845 43.06746883 35.13609398 45.37307425 36.51123047 47.68188477 C36.88344727 48.30144043 37.25566406 48.92099609 37.63916016 49.55932617 C38.58606258 51.13614801 39.52556192 52.71740923 40.46435547 54.29907227 C40.94388672 54.97067383 41.42341797 55.64227539 41.91748047 56.33422852 C42.57748047 56.33422852 43.23748047 56.33422852 43.91748047 56.33422852 C45.56989721 53.97423197 45.56989721 53.97423197 47.26904297 50.90454102 C47.59975296 50.33063126 47.93046295 49.7567215 48.27119446 49.16542053 C48.9892621 47.91900888 49.70447945 46.67095188 50.41720581 45.42147827 C51.5473545 43.45072919 52.69531148 41.49150221 53.84936523 39.53466797 C57.35232097 33.58197643 60.80200688 27.62468599 63.98898315 21.49572754 C73.72939667 2.83264722 73.72939667 2.83264722 79.33496094 0.19799805 C84.80134379 -0.99117625 89.62534694 -0.31015433 94.91748047 1.33422852 C95.90748047 2.32422852 95.90748047 2.32422852 96.91748047 3.33422852 C96.63624016 7.77938778 94.48193222 11.09645555 92.16748047 14.77172852 C91.34353385 16.11224183 90.5206838 17.45342956 89.69873047 18.79516602 C89.25142578 19.521875 88.80412109 20.24858398 88.34326172 20.99731445 C85.73713447 25.26886412 83.2068311 29.5852693 80.66748047 33.89672852 C79.54388703 35.80043601 78.42018789 37.70408114 77.29638672 39.60766602 C76.7345166 40.55996094 76.17264648 41.51225586 75.59375 42.4934082 C67.0953884 56.89581653 58.57945271 71.28778787 50.05133057 85.67259216 C49.71325378 86.24284622 49.375177 86.81310028 49.02685547 87.40063477 C48.5180484 88.25885582 48.5180484 88.25885582 47.9989624 89.13441467 C44.94878252 94.27995322 41.90179114 99.42737 38.86083984 104.57836914 C37.53033877 106.82091768 36.1905663 109.05799297 34.84130859 111.28930664 C31.77582052 116.37652148 28.8054264 121.45973803 26.15280151 126.77311707 C17.03930925 145.00638633 17.03930925 145.00638633 11.41259766 147.3996582 C5.70063641 148.45059195 0.51229249 147.6892691 -5.08251953 146.33422852 C-6.09447972 143.15921702 -6.23481979 141.70482253 -4.94946289 138.57714844 C-4.36302002 137.58303955 -3.77657715 136.58893066 -3.17236328 135.56469727 C-2.51864746 134.4398291 -1.86493164 133.31496094 -1.19140625 132.15600586 C-0.46789252 130.94441173 0.25590973 129.73298985 0.97998047 128.52172852 C1.71292697 127.27202425 2.4445208 126.02152574 3.17480469 124.77026367 C4.67368546 122.20708887 6.18052014 119.64886413 7.69433594 117.09448242 C9.77894456 113.57473613 11.83798797 110.04097461 13.89013672 106.50219727 C16.19829177 102.52360734 18.50902839 98.54664386 20.83154297 94.57641602 C21.33588867 93.70597656 21.84023438 92.83553711 22.35986328 91.9387207 C23.43704556 90.13756387 24.55967383 88.36309835 25.71728516 86.61254883 C26.28608398 85.73953125 26.85488281 84.86651367 27.44091797 83.96704102 C28.22474854 82.80906006 28.22474854 82.80906006 29.02441406 81.62768555 C30.17858084 79.33260152 30.17858084 79.33260152 29.25439453 76.85986328 C27.89562148 74.29293355 26.50364134 71.77859545 25.00341797 69.29125977 C24.41520264 68.31278076 23.8269873 67.33430176 23.22094727 66.32617188 C22.58455322 65.27695557 21.94815918 64.22773926 21.29248047 63.14672852 C20.63094971 62.05046143 19.96941895 60.95419434 19.2878418 59.82470703 C14.4306802 51.78439647 9.52475159 43.77385086 4.60498047 35.77172852 C3.6050708 34.14388428 3.6050708 34.14388428 2.58496094 32.4831543 C-0.33994181 27.73408744 -3.28100195 23.00016534 -6.31298828 18.31860352 C-7.02491333 17.21174194 -7.02491333 17.21174194 -7.7512207 16.08251953 C-8.6046814 14.76140056 -9.46735175 13.44615921 -10.34155273 12.13867188 C-12.52308328 8.75636888 -13.67315163 6.38744131 -13.08251953 2.33422852 C-10.2602407 -0.48805032 -3.7431941 0.11382002 0 0 Z " fill="#EE5030" transform="translate(369.08251953125,423.665771484375)"/>
<path d="M0 0 C6.373125 -0.0825 12.74625 -0.165 19.3125 -0.25 C21.30063721 -0.28641602 23.28877441 -0.32283203 25.3371582 -0.36035156 C36.46604012 -0.48057913 47.16554894 -0.33889494 55.875 7.625 C62.55306364 14.17118087 65.46488023 20.46626912 65.6875 29.875 C65.56352695 39.38965199 62.19037663 47.25591392 55.375 54 C44.32510006 62.21155511 31.83521499 61.49730378 18.75 61.25 C12.5625 61.1675 6.375 61.085 0 61 C0 40.87 0 20.74 0 0 Z " fill="#FEFCFC" transform="translate(154,389)"/>
<path d="M0 0 C6.91496277 3.88966656 13.14374592 9.94523064 15.55859375 17.67578125 C17.37354177 27.23236597 16.37650313 34.88506461 11 43 C10.38318359 43.97066406 10.38318359 43.97066406 9.75390625 44.9609375 C5.56880728 50.64869812 -0.38578849 53.81838944 -7 56 C-17.32863928 57.4934346 -25.66976969 55.58765502 -34.25 49.8125 C-41.0002284 42.90885731 -45.23193121 35.56893257 -45.4375 25.75 C-45.28458797 17.35895241 -42.41021175 11.3555947 -36.8125 5.1875 C-26.33234085 -4.26255804 -12.74751258 -6.27258556 0 0 Z " fill="#FEFCFC" transform="translate(302,446)"/>
</svg>
